<svg width="16" height="16" viewBox="0 0 16 16" fill="none" xmlns="http://www.w3.org/2000/svg">
<g id="Iconsax/Bold/alarm" clip-path="url(#clip0_1126_4125)">
<path id="Vector" d="M14.6663 14.1663H13.9997V9.99967C13.9997 8.40838 13.3675 6.88225 12.2423 5.75703C11.1171 4.63182 9.59097 3.99967 7.99967 3.99967C6.40838 3.99967 4.88225 4.63182 3.75703 5.75703C2.63182 6.88225 1.99967 8.40838 1.99967 9.99967V14.1663H1.33301C1.05967 14.1663 0.833008 14.393 0.833008 14.6663C0.833008 14.9397 1.05967 15.1663 1.33301 15.1663H14.6663C14.9397 15.1663 15.1663 14.9397 15.1663 14.6663C15.1663 14.393 14.9397 14.1663 14.6663 14.1663ZM7.99967 2.49967C7.72634 2.49967 7.49967 2.27301 7.49967 1.99967V1.33301C7.49967 1.05967 7.72634 0.833008 7.99967 0.833008C8.27301 0.833008 8.49967 1.05967 8.49967 1.33301V1.99967C8.49967 2.27301 8.27301 2.49967 7.99967 2.49967ZM3.33367 3.83367C3.20701 3.83367 3.08034 3.78701 2.98034 3.68701L2.31367 3.02034C2.22069 2.92625 2.16854 2.79929 2.16854 2.66701C2.16854 2.53472 2.22069 2.40777 2.31367 2.31367C2.50701 2.12034 2.82701 2.12034 3.02034 2.31367L3.68701 2.98034C3.88034 3.17367 3.88034 3.49367 3.68701 3.68701C3.58701 3.78701 3.46034 3.83367 3.33367 3.83367ZM12.667 3.83367C12.5403 3.83367 12.4137 3.78701 12.3137 3.68701C12.2207 3.59292 12.1685 3.46596 12.1685 3.33367C12.1685 3.20139 12.2207 3.07443 12.3137 2.98034L12.9803 2.31367C13.1737 2.12034 13.4937 2.12034 13.687 2.31367C13.8803 2.50701 13.8803 2.82701 13.687 3.02034L13.0203 3.68701C12.9203 3.78701 12.7937 3.83367 12.667 3.83367Z" fill="#434357"/>
</g>
<defs>
<clipPath id="clip0_1126_4125">
<rect width="16" height="16" fill="white"/>
</clipPath>
</defs>
</svg>
