<svg width="640" height="1024" viewBox="0 0 640 1024" fill="none" xmlns="http://www.w3.org/2000/svg">
<g clip-path="url(#clip0_529_4751)">
<path d="M0 0H640V1024H0V0Z" fill="url(#paint0_linear_529_4751)"/>
<g opacity="0.2">
<path d="M14.2574 739.46C167.115 593.104 197.214 480.317 195.464 403.385C193.508 317.527 151.002 237.86 176.255 223.12C192.424 213.681 224.807 237.632 288.8 292.593C482.854 459.254 505.074 513.804 561.543 510.161C640.654 505.073 651.692 394.47 763.115 357.652C844.952 330.614 929.32 360.418 990.175 391.875" stroke="white" stroke-width="0.869932" stroke-miterlimit="10"/>
<path d="M6.97873 732.697C155.341 589.916 189.898 478.423 191.452 405.2C193.188 323.372 152.342 248.009 177.823 234.82C194.205 226.34 225.998 249.894 287.806 302.969C475.633 464.231 498.987 519.159 554.811 514.944C633.98 508.687 640.67 391.89 752.06 351.225C754.488 350.338 756.89 349.495 759.315 348.712C839.412 322.891 924.726 352.391 986.429 383.226" stroke="white" stroke-width="0.869932" stroke-miterlimit="10"/>
<path d="M-0.286402 725.93C143.569 586.735 182.585 476.705 187.453 407.016C192.878 329.338 153.705 258.161 179.404 246.521C196.004 239 227.211 262.159 286.823 313.349C468.394 469.211 492.925 524.705 548.097 519.72C627.345 512.56 629.671 389.245 741.023 344.788C743.466 343.812 745.901 342.839 748.377 341.983C829.211 314.067 918.379 343.442 982.695 374.569" stroke="white" stroke-width="0.869932" stroke-miterlimit="10"/>
<path d="M-7.56 719.166C131.805 583.526 175.244 475.204 183.448 408.835C192.519 335.446 155.076 268.319 180.978 258.228C197.806 251.671 228.398 274.431 285.833 323.729C461.171 474.209 486.854 530.143 541.378 524.498C620.692 516.288 618.664 386.555 729.981 338.354C732.451 337.283 734.922 336.221 737.418 335.26C818.562 304.045 912.011 334.497 978.941 365.915" stroke="white" stroke-width="0.869932" stroke-miterlimit="10"/>
<path d="M-14.8331 712.402C120.038 580.343 167.849 473.938 179.441 410.653C192.071 341.706 156.461 278.482 182.555 269.934C199.616 264.342 229.598 286.701 284.847 334.109C453.944 479.196 480.784 535.571 534.659 529.274C614.057 519.994 607.654 383.818 718.935 331.909C721.435 330.749 723.938 329.588 726.482 328.52C808.154 294.646 905.66 325.54 975.216 357.256" stroke="white" stroke-width="0.869932" stroke-miterlimit="10"/>
<path d="M-22.1058 705.637C108.274 577.157 160.371 472.937 175.444 412.472C191.481 348.129 157.85 288.653 184.137 281.635C201.439 277.017 230.799 298.967 283.864 344.489C446.726 484.18 474.721 540.985 527.946 534.049C607.419 523.691 596.638 381.038 707.902 325.479C710.43 324.217 712.956 322.949 715.547 321.796C797.751 285.286 899.323 316.592 971.486 348.607" stroke="white" stroke-width="0.869932" stroke-miterlimit="10"/>
<path d="M-29.3759 698.871C96.5045 573.964 152.76 472.213 171.434 414.291C190.646 354.699 159.259 298.831 185.708 293.342C203.258 289.698 231.997 311.246 282.87 354.87C439.493 489.166 468.65 546.393 521.221 538.827C600.783 527.376 585.602 378.226 696.855 319.046C699.42 317.683 701.966 316.315 704.593 315.074C787.329 275.943 892.961 307.653 967.737 339.956" stroke="white" stroke-width="0.869932" stroke-miterlimit="10"/>
<path d="M-36.6493 692.107C84.7351 570.773 134.339 467.228 167.43 416.109C178.269 358.935 160.67 309.023 187.284 305.045C205.085 302.386 233.192 323.506 281.888 365.263C432.27 494.166 462.585 551.802 514.506 543.617C594.148 531.06 574.56 375.39 685.814 312.625C688.401 311.166 690.986 309.694 693.655 308.356C776.938 266.627 886.626 298.705 964.01 331.311" stroke="white" stroke-width="0.869932" stroke-miterlimit="10"/>
<path d="M-43.9226 685.343C72.9687 567.583 125.358 465.355 163.425 417.928C176.093 364.85 162.085 319.227 188.861 316.751C206.917 315.08 234.386 335.769 280.895 375.633C425.026 499.146 456.514 557.177 507.786 548.382C587.507 534.704 563.495 372.497 674.768 306.178C677.381 304.62 679.995 303.047 682.707 301.615C766.541 257.304 880.258 289.749 960.267 322.644" stroke="white" stroke-width="0.869932" stroke-miterlimit="10"/>
<path d="M-51.196 678.579C61.1993 564.392 116.375 463.486 159.418 419.746C173.913 370.764 163.503 329.442 190.436 328.454C208.749 327.78 235.586 348.039 279.905 386.012C417.815 504.136 450.446 562.551 501.065 553.155C580.869 538.344 552.416 369.59 663.724 299.738C666.363 298.083 669.01 296.412 671.761 294.884C756.152 248.003 873.902 280.796 956.528 313.987" stroke="white" stroke-width="0.869932" stroke-miterlimit="10"/>
<path d="M-58.4663 671.813C49.4358 561.2 107.395 461.615 155.415 421.567C171.738 376.682 164.924 339.672 192.01 340.16C210.582 340.494 236.786 360.312 278.917 396.386C410.583 509.108 444.376 567.911 494.345 557.928C574.226 541.967 541.32 366.654 652.68 293.298C655.347 291.54 658.025 289.776 660.812 288.151C745.772 238.714 867.548 271.844 952.787 305.328" stroke="white" stroke-width="0.869932" stroke-miterlimit="10"/>
<path d="M-65.7412 665.046C37.6614 558.014 98.4194 459.741 151.416 423.394C169.567 382.607 166.347 349.918 193.587 351.877C212.415 353.227 237.985 372.59 277.931 406.786C403.359 514.114 438.307 573.285 487.633 562.72C567.593 545.596 530.218 363.726 641.643 286.881C644.34 285.023 647.036 283.164 649.877 281.45C735.41 229.465 861.202 262.919 949.057 296.698" stroke="white" stroke-width="0.869932" stroke-miterlimit="10"/>
<path d="M-73.0135 658.282C25.8958 554.823 89.4291 457.874 147.406 425.203C167.386 388.513 167.755 360.162 195.163 363.569C214.244 365.943 239.182 384.85 276.943 417.157C396.143 519.087 432.236 578.621 480.909 567.489C560.941 549.183 519.08 360.744 630.599 280.437C633.317 278.477 636.058 276.521 638.936 274.701C725.055 220.19 854.848 253.941 945.322 288.026" stroke="white" stroke-width="0.869932" stroke-miterlimit="10"/>
<path d="M-80.2778 651.515C14.1275 551.633 80.4477 456.005 143.404 427.026C165.209 394.434 169.163 370.422 196.741 375.274C216.073 378.677 240.381 397.117 275.957 427.535C388.909 524.077 426.164 583.965 474.191 572.266C554.296 552.763 507.928 357.749 619.555 274.002C622.301 271.94 625.075 269.888 627.984 267.975C714.691 210.932 848.49 245.004 941.592 279.368" stroke="white" stroke-width="0.869932" stroke-miterlimit="10"/>
<path d="M-87.5566 644.752C2.35816 548.442 71.4672 454.133 139.399 428.841C163.032 400.347 170.566 380.687 198.319 386.985C217.896 391.422 241.581 409.389 274.959 437.926C381.673 529.073 420.074 589.295 467.462 577.05C547.632 556.336 496.759 354.777 608.502 267.574C611.275 265.412 614.083 263.266 617.028 261.256C704.339 201.692 842.128 236.065 937.83 270.727" stroke="white" stroke-width="0.869932" stroke-miterlimit="10"/>
<path d="M-94.8294 637.988C-9.41057 545.252 62.4845 452.263 135.392 430.66C160.856 406.263 171.96 390.961 199.893 398.683C219.711 404.162 242.776 421.655 273.982 448.298C374.455 534.049 414.002 594.605 460.755 581.819C540.984 559.876 485.585 351.754 597.474 261.143C600.272 258.879 603.114 256.639 606.112 254.528C694.011 192.443 835.783 227.106 934.098 262.054" stroke="white" stroke-width="0.869932" stroke-miterlimit="10"/>
<path d="M-102.103 631.224C-21.1765 542.064 53.5046 450.402 131.387 432.478C158.661 412.177 173.347 401.243 201.47 410.389C221.52 416.912 243.975 433.923 272.99 458.67C367.224 539.026 407.914 599.907 454.031 586.584C534.312 563.395 474.381 348.726 586.424 254.686C589.245 252.317 592.123 249.986 595.145 247.782C683.681 183.209 829.438 218.156 930.362 253.41" stroke="white" stroke-width="0.869932" stroke-miterlimit="10"/>
<path d="M-109.38 624.449C-32.9493 538.863 44.5152 448.514 127.378 434.29C156.494 418.086 174.721 411.514 203.036 422.084C223.316 429.642 245.167 446.181 271.997 469.051C359.992 544.01 401.824 605.21 447.31 591.363C527.643 566.919 463.169 345.71 575.387 248.266C578.23 245.794 581.145 243.371 584.203 241.069C673.363 173.983 823.077 209.213 926.628 244.768" stroke="white" stroke-width="0.869932" stroke-miterlimit="10"/>
<path d="M-116.65 617.686C-44.7114 535.693 45.5863 478.567 123.379 436.117C152.489 420.231 176.101 421.81 204.619 433.798C225.125 442.406 246.372 458.46 271.018 479.44C352.774 549.011 395.737 610.513 440.597 596.15C520.962 570.416 451.938 342.675 564.342 241.823C567.209 239.253 570.166 236.733 573.257 234.335C663.048 164.752 816.714 200.264 922.887 236.1" stroke="white" stroke-width="0.869932" stroke-miterlimit="10"/>
<path d="M-123.922 610.925C-56.4775 532.485 27.1719 452.511 119.374 437.93C152.635 432.671 177.465 432.092 206.194 445.499C226.92 455.159 247.567 470.723 270.028 489.817C345.548 553.992 389.637 615.794 433.876 600.92C514.268 573.893 440.69 339.633 553.296 235.385C556.189 232.709 559.184 230.105 562.312 227.604C652.883 155.692 810.368 191.311 919.157 227.442" stroke="white" stroke-width="0.869932" stroke-miterlimit="10"/>
<path d="M-131.194 604.163C-68.2515 529.299 17.6086 446.847 115.37 439.75C150.047 437.235 178.824 442.383 207.771 457.205C228.711 467.918 248.767 482.996 269.039 500.199C338.322 558.982 383.597 621.251 427.158 605.701C507.453 577.037 429.273 336.449 542.254 228.953C545.164 226.17 548.201 223.478 551.366 220.879C642.518 146.392 804.014 182.361 915.409 218.788" stroke="white" stroke-width="0.869932" stroke-miterlimit="10"/>
<path d="M-138.467 597.401C-80.0188 526.114 8.59194 441.048 111.364 441.574C266.298 442.375 348.071 637.184 420.441 610.478C502.94 580.035 413.75 320.564 540.422 214.152C632.152 137.094 797.672 173.409 911.672 210.139" stroke="white" stroke-width="0.869932" stroke-miterlimit="10"/>
</g>
<g opacity="0.2">
<path d="M14.2574 739.46C167.115 593.104 197.214 480.317 195.464 403.385C193.508 317.527 151.002 237.86 176.255 223.12C192.424 213.681 224.807 237.632 288.8 292.593C482.854 459.254 505.074 513.804 561.543 510.161C640.654 505.073 651.692 394.47 763.115 357.652C844.952 330.614 929.32 360.418 990.175 391.875" stroke="white" stroke-width="0.869932" stroke-miterlimit="10"/>
<path d="M6.97873 732.697C155.341 589.916 189.898 478.423 191.452 405.2C193.188 323.372 152.342 248.009 177.823 234.82C194.205 226.34 225.998 249.894 287.806 302.969C475.633 464.231 498.987 519.159 554.811 514.944C633.98 508.687 640.67 391.89 752.06 351.225C754.488 350.338 756.89 349.495 759.315 348.712C839.412 322.891 924.726 352.391 986.429 383.226" stroke="white" stroke-width="0.869932" stroke-miterlimit="10"/>
<path d="M-0.286402 725.93C143.569 586.735 182.585 476.705 187.453 407.016C192.878 329.338 153.705 258.161 179.404 246.521C196.004 239 227.211 262.159 286.823 313.349C468.394 469.211 492.925 524.705 548.097 519.72C627.345 512.56 629.671 389.245 741.023 344.788C743.466 343.812 745.901 342.839 748.377 341.983C829.211 314.067 918.379 343.442 982.695 374.569" stroke="white" stroke-width="0.869932" stroke-miterlimit="10"/>
<path d="M-7.56 719.166C131.805 583.526 175.244 475.204 183.448 408.835C192.519 335.446 155.076 268.319 180.978 258.228C197.806 251.671 228.398 274.431 285.833 323.729C461.171 474.209 486.854 530.143 541.378 524.498C620.692 516.288 618.664 386.555 729.981 338.354C732.451 337.283 734.922 336.221 737.418 335.26C818.562 304.045 912.011 334.497 978.941 365.915" stroke="white" stroke-width="0.869932" stroke-miterlimit="10"/>
<path d="M-14.8331 712.402C120.038 580.343 167.849 473.938 179.441 410.653C192.071 341.706 156.461 278.482 182.555 269.934C199.616 264.342 229.598 286.701 284.847 334.109C453.944 479.196 480.784 535.571 534.659 529.274C614.057 519.994 607.654 383.818 718.935 331.909C721.435 330.749 723.938 329.588 726.482 328.52C808.154 294.646 905.66 325.54 975.216 357.256" stroke="white" stroke-width="0.869932" stroke-miterlimit="10"/>
<path d="M-22.1058 705.637C108.274 577.157 160.371 472.937 175.444 412.472C191.481 348.129 157.85 288.653 184.137 281.635C201.439 277.017 230.799 298.967 283.864 344.489C446.726 484.18 474.721 540.985 527.946 534.049C607.419 523.691 596.638 381.038 707.902 325.479C710.43 324.217 712.956 322.949 715.547 321.796C797.751 285.286 899.323 316.592 971.486 348.607" stroke="white" stroke-width="0.869932" stroke-miterlimit="10"/>
<path d="M-29.3759 698.871C96.5045 573.964 152.76 472.213 171.434 414.291C190.646 354.699 159.259 298.831 185.708 293.342C203.258 289.698 231.997 311.246 282.87 354.87C439.493 489.166 468.65 546.393 521.221 538.827C600.783 527.376 585.602 378.226 696.855 319.046C699.42 317.683 701.966 316.315 704.593 315.074C787.329 275.943 892.961 307.653 967.737 339.956" stroke="white" stroke-width="0.869932" stroke-miterlimit="10"/>
<path d="M-36.6493 692.107C84.7351 570.773 134.339 467.228 167.43 416.109C178.269 358.935 160.67 309.023 187.284 305.045C205.085 302.386 233.192 323.506 281.888 365.263C432.27 494.166 462.585 551.802 514.506 543.617C594.148 531.06 574.56 375.39 685.814 312.625C688.401 311.166 690.986 309.694 693.655 308.356C776.938 266.627 886.626 298.705 964.01 331.311" stroke="white" stroke-width="0.869932" stroke-miterlimit="10"/>
<path d="M-43.9226 685.343C72.9687 567.583 125.358 465.355 163.425 417.928C176.093 364.85 162.085 319.227 188.861 316.751C206.917 315.08 234.386 335.769 280.895 375.633C425.026 499.146 456.514 557.177 507.786 548.382C587.507 534.704 563.495 372.497 674.768 306.178C677.381 304.62 679.995 303.047 682.707 301.615C766.541 257.304 880.258 289.749 960.267 322.644" stroke="white" stroke-width="0.869932" stroke-miterlimit="10"/>
<path d="M-51.196 678.579C61.1993 564.392 116.375 463.486 159.418 419.746C173.913 370.764 163.503 329.442 190.436 328.454C208.749 327.78 235.586 348.039 279.905 386.012C417.815 504.136 450.446 562.551 501.065 553.155C580.869 538.344 552.416 369.59 663.724 299.738C666.363 298.083 669.01 296.412 671.761 294.884C756.152 248.003 873.902 280.796 956.528 313.987" stroke="white" stroke-width="0.869932" stroke-miterlimit="10"/>
<path d="M-58.4663 671.813C49.4358 561.2 107.395 461.615 155.415 421.567C171.738 376.682 164.924 339.672 192.01 340.16C210.582 340.494 236.786 360.312 278.917 396.386C410.583 509.108 444.376 567.911 494.345 557.928C574.226 541.967 541.32 366.654 652.68 293.298C655.347 291.54 658.025 289.776 660.812 288.151C745.772 238.714 867.548 271.844 952.787 305.328" stroke="white" stroke-width="0.869932" stroke-miterlimit="10"/>
<path d="M-65.7412 665.046C37.6614 558.014 98.4194 459.741 151.416 423.394C169.567 382.607 166.347 349.918 193.587 351.877C212.415 353.227 237.985 372.59 277.931 406.786C403.359 514.114 438.307 573.285 487.633 562.72C567.593 545.596 530.218 363.726 641.643 286.881C644.34 285.023 647.036 283.164 649.877 281.45C735.41 229.465 861.202 262.919 949.057 296.698" stroke="white" stroke-width="0.869932" stroke-miterlimit="10"/>
<path d="M-73.0135 658.282C25.8958 554.823 89.4291 457.874 147.406 425.203C167.386 388.513 167.755 360.162 195.163 363.569C214.244 365.943 239.182 384.85 276.943 417.157C396.143 519.087 432.236 578.621 480.909 567.489C560.941 549.183 519.08 360.744 630.599 280.437C633.317 278.477 636.058 276.521 638.936 274.701C725.055 220.19 854.848 253.941 945.322 288.026" stroke="white" stroke-width="0.869932" stroke-miterlimit="10"/>
<path d="M-80.2778 651.515C14.1275 551.633 80.4477 456.005 143.404 427.026C165.209 394.434 169.163 370.422 196.741 375.274C216.073 378.677 240.381 397.117 275.957 427.535C388.909 524.077 426.164 583.965 474.191 572.266C554.296 552.763 507.928 357.749 619.555 274.002C622.301 271.94 625.075 269.888 627.984 267.975C714.691 210.932 848.49 245.004 941.592 279.368" stroke="white" stroke-width="0.869932" stroke-miterlimit="10"/>
<path d="M-87.5566 644.752C2.35816 548.442 71.4672 454.133 139.399 428.841C163.032 400.347 170.566 380.687 198.319 386.985C217.896 391.422 241.581 409.389 274.959 437.926C381.673 529.073 420.074 589.295 467.462 577.05C547.632 556.336 496.759 354.777 608.502 267.574C611.275 265.412 614.083 263.266 617.028 261.256C704.339 201.692 842.128 236.065 937.83 270.727" stroke="white" stroke-width="0.869932" stroke-miterlimit="10"/>
<path d="M-94.8294 637.988C-9.41057 545.252 62.4845 452.263 135.392 430.66C160.856 406.263 171.96 390.961 199.893 398.683C219.711 404.162 242.776 421.655 273.982 448.298C374.455 534.049 414.002 594.605 460.755 581.819C540.984 559.876 485.585 351.754 597.474 261.143C600.272 258.879 603.114 256.639 606.112 254.528C694.011 192.443 835.783 227.106 934.098 262.054" stroke="white" stroke-width="0.869932" stroke-miterlimit="10"/>
<path d="M-102.103 631.224C-21.1765 542.064 53.5046 450.402 131.387 432.478C158.661 412.177 173.347 401.243 201.47 410.389C221.52 416.912 243.975 433.923 272.99 458.67C367.224 539.026 407.914 599.907 454.031 586.584C534.312 563.395 474.381 348.726 586.424 254.686C589.245 252.317 592.123 249.986 595.145 247.782C683.681 183.209 829.438 218.156 930.362 253.41" stroke="white" stroke-width="0.869932" stroke-miterlimit="10"/>
<path d="M-109.38 624.449C-32.9493 538.863 44.5152 448.514 127.378 434.29C156.494 418.086 174.721 411.514 203.036 422.084C223.316 429.642 245.167 446.181 271.997 469.051C359.992 544.01 401.824 605.21 447.31 591.363C527.643 566.919 463.169 345.71 575.387 248.266C578.23 245.794 581.145 243.371 584.203 241.069C673.363 173.983 823.077 209.213 926.628 244.768" stroke="white" stroke-width="0.869932" stroke-miterlimit="10"/>
<path d="M-116.65 617.686C-44.7114 535.693 45.5863 478.567 123.379 436.117C152.489 420.231 176.101 421.81 204.619 433.798C225.125 442.406 246.372 458.46 271.018 479.44C352.774 549.011 395.737 610.513 440.597 596.15C520.962 570.416 451.938 342.675 564.342 241.823C567.209 239.253 570.166 236.733 573.257 234.335C663.048 164.752 816.714 200.264 922.887 236.1" stroke="white" stroke-width="0.869932" stroke-miterlimit="10"/>
<path d="M-123.922 610.925C-56.4775 532.485 27.1719 452.511 119.374 437.93C152.635 432.671 177.465 432.092 206.194 445.499C226.92 455.159 247.567 470.723 270.028 489.817C345.548 553.992 389.637 615.794 433.876 600.92C514.268 573.893 440.69 339.633 553.296 235.385C556.189 232.709 559.184 230.105 562.312 227.604C652.883 155.692 810.368 191.311 919.157 227.442" stroke="white" stroke-width="0.869932" stroke-miterlimit="10"/>
<path d="M-131.194 604.163C-68.2515 529.299 17.6086 446.847 115.37 439.75C150.047 437.235 178.824 442.383 207.771 457.205C228.711 467.918 248.767 482.996 269.039 500.199C338.322 558.982 383.597 621.251 427.158 605.701C507.453 577.037 429.273 336.449 542.254 228.953C545.164 226.17 548.201 223.478 551.366 220.879C642.518 146.392 804.014 182.361 915.409 218.788" stroke="white" stroke-width="0.869932" stroke-miterlimit="10"/>
<path d="M-138.467 597.401C-80.0188 526.114 8.59194 441.048 111.364 441.574C266.298 442.375 348.071 637.184 420.441 610.478C502.94 580.035 413.75 320.564 540.422 214.152C632.152 137.094 797.672 173.409 911.672 210.139" stroke="white" stroke-width="0.869932" stroke-miterlimit="10"/>
</g>
</g>
<defs>
<linearGradient id="paint0_linear_529_4751" x1="0" y1="0" x2="638.487" y2="1024.94" gradientUnits="userSpaceOnUse">
<stop stop-color="#27AE60"/>
<stop offset="1" stop-color="#11998E"/>
</linearGradient>
<clipPath id="clip0_529_4751">
<rect width="640" height="1024" fill="white"/>
</clipPath>
</defs>
</svg>
