<svg width="24" height="23" viewBox="0 0 24 23" fill="none" xmlns="http://www.w3.org/2000/svg">
<path id="Vector" d="M22.5417 18.8439L20.6665 19.2871C20.246 19.3894 19.9165 19.7076 19.8255 20.1281L19.4278 21.7988C19.2118 22.708 18.0526 22.9921 17.4503 22.2761L14.0522 18.3666C13.9889 18.2938 13.9453 18.2061 13.9254 18.1117C13.9054 18.0174 13.9099 17.9195 13.9383 17.8273C13.9668 17.7352 14.0183 17.6518 14.0879 17.5851C14.1575 17.5184 14.243 17.4705 14.3363 17.446C16.3537 16.9556 18.1591 15.8277 19.4846 14.2298C19.7005 13.9684 20.0869 13.9343 20.3256 14.1729L22.8486 16.6959C23.7123 17.5597 23.4055 18.6393 22.5417 18.8439ZM1.45992 18.8439L3.33513 19.2871C3.75563 19.3894 4.08521 19.7076 4.17613 20.1281L4.5739 21.7988C4.78983 22.708 5.94904 22.9921 6.55138 22.2761L9.94948 18.3666C10.2222 18.0484 10.0745 17.5483 9.66536 17.446C7.64799 16.9556 5.84256 15.8277 4.51707 14.2298C4.468 14.1673 4.40633 14.1158 4.33607 14.0786C4.26581 14.0415 4.18852 14.0195 4.10922 14.0141C4.02993 14.0088 3.95039 14.0201 3.87577 14.0475C3.80115 14.0749 3.73311 14.1176 3.67607 14.1729L1.15307 16.6959C0.289343 17.5597 0.596194 18.6393 1.45992 18.8439ZM12.0292 0.125977C7.63105 0.125977 4.07384 3.68318 4.07384 8.08138C4.07384 9.72929 4.56253 11.2408 5.40353 12.5023C6.01979 13.4214 6.82141 14.2016 7.75693 14.7926C8.69246 15.3837 9.74123 15.7726 10.8359 15.9345C11.2223 16.0027 11.6201 16.0368 12.0292 16.0368C12.4384 16.0368 12.8362 16.0027 13.2226 15.9345C15.4842 15.6049 17.4276 14.3207 18.655 12.5023C19.5274 11.1934 19.9903 9.65438 19.9847 8.08138C19.9847 3.68318 16.4275 0.125977 12.0292 0.125977ZM15.5069 7.83136L14.5636 8.77464C14.4045 8.93375 14.3136 9.2406 14.3704 9.4679L14.6432 10.6385C14.8591 11.559 14.3704 11.9227 13.5521 11.434L12.4157 10.7635C12.3002 10.7019 12.1714 10.6697 12.0406 10.6697C11.9098 10.6697 11.781 10.7019 11.6656 10.7635L10.5291 11.434C9.71082 11.9113 9.22213 11.559 9.43806 10.6385L9.71082 9.4679C9.75627 9.25196 9.67672 8.93375 9.51761 8.77464L8.5516 7.83136C7.99472 7.27448 8.17656 6.7176 8.94937 6.59259L10.1654 6.38802C10.37 6.35392 10.6086 6.17208 10.6996 5.99025L11.3701 4.64919C11.7338 3.92184 12.3247 3.92184 12.6884 4.64919L13.3589 5.99025C13.4499 6.17208 13.6885 6.35392 13.9045 6.38802L15.1205 6.59259C15.8819 6.7176 16.0638 7.27448 15.5069 7.83136Z" fill="#F5A623"/>
</svg>
