<svg width="20" height="20" viewBox="0 0 20 20" fill="none" xmlns="http://www.w3.org/2000/svg">
<g id="Iconsax/Linear/chart1" clip-path="url(#clip0_529_8604)">
<path id="Vector" d="M1.66699 18.333H18.3337" stroke="#8E8E9A" stroke-width="1.5" stroke-miterlimit="10" stroke-linecap="round" stroke-linejoin="round"/>
<path id="Vector_2" d="M8.125 3.33366V18.3337H11.875V3.33366C11.875 2.41699 11.5 1.66699 10.375 1.66699H9.625C8.5 1.66699 8.125 2.41699 8.125 3.33366ZM2.5 8.33366V18.3337H5.83333V8.33366C5.83333 7.41699 5.5 6.66699 4.5 6.66699H3.83333C2.83333 6.66699 2.5 7.41699 2.5 8.33366ZM14.1667 12.5003V18.3337H17.5V12.5003C17.5 11.5837 17.1667 10.8337 16.1667 10.8337H15.5C14.5 10.8337 14.1667 11.5837 14.1667 12.5003Z" stroke="#8E8E9A" stroke-width="1.5" stroke-linecap="round" stroke-linejoin="round"/>
</g>
<defs>
<clipPath id="clip0_529_8604">
<rect width="20" height="20" fill="white"/>
</clipPath>
</defs>
</svg>
