<svg width="16" height="16" viewBox="0 0 16 16" fill="none" xmlns="http://www.w3.org/2000/svg">
<g id="Iconsax/Bold/chart21">
<path id="Vector" d="M14.6663 14.667H1.33301C1.05967 14.667 0.833008 14.4403 0.833008 14.167C0.833008 13.8937 1.05967 13.667 1.33301 13.667H14.6663C14.9397 13.667 15.1663 13.8937 15.1663 14.167C15.1663 14.4403 14.9397 14.667 14.6663 14.667Z" fill="#434357"/>
<path id="Vector_2" d="M6.5 2.66683V14.6668H9.5V2.66683C9.5 1.9335 9.2 1.3335 8.3 1.3335H7.7C6.8 1.3335 6.5 1.9335 6.5 2.66683ZM2 6.66683V14.6668H4.66667V6.66683C4.66667 5.9335 4.4 5.3335 3.6 5.3335H3.06667C2.26667 5.3335 2 5.9335 2 6.66683ZM11.3333 10.0002V14.6668H14V10.0002C14 9.26683 13.7333 8.66683 12.9333 8.66683H12.4C11.6 8.66683 11.3333 9.26683 11.3333 10.0002Z" fill="#434357"/>
</g>
</svg>
