<svg width="116" height="36" viewBox="0 0 116 36" fill="none" xmlns="http://www.w3.org/2000/svg">
<g clip-path="url(#clip0_21_353)">
<path d="M44.4864 31.4767C42.8511 31.5243 41.2343 31.1004 39.809 30.2504C38.5179 29.4444 37.4763 28.258 36.8112 26.8358C36.0953 25.2681 35.7411 23.5429 35.7779 21.802C35.742 20.0498 36.1041 18.3142 36.8336 16.741C37.5065 15.3231 38.5505 14.1401 39.841 13.3332C41.2522 12.4856 42.855 12.0617 44.4768 12.1069C45.8768 12.0734 47.2655 12.3793 48.5367 13.0012C49.6541 13.5542 50.6077 14.4198 51.2945 15.5046C51.9914 16.6393 52.3789 17.9557 52.4143 19.3087H47.7657C47.6716 18.4518 47.3075 17.6535 46.7323 17.0425C46.4407 16.752 46.0972 16.5262 45.7219 16.3784C45.3466 16.2307 44.9472 16.1639 44.5472 16.1821C43.8344 16.1657 43.136 16.3951 42.5572 16.8359C41.9561 17.323 41.4979 17.9809 41.2359 18.7329C40.8991 19.6982 40.7384 20.7224 40.7624 21.7511C40.7382 22.7893 40.8966 23.8231 41.2295 24.7999C41.4858 25.5616 41.9447 26.2286 42.5508 26.7206C43.0612 27.093 43.6555 27.3161 44.2734 27.3673C44.8914 27.4184 45.5112 27.2958 46.07 27.0119C46.523 26.7643 46.9077 26.3966 47.1866 25.9449C47.4991 25.4338 47.6992 24.855 47.7721 24.2511H52.4143C52.3647 25.5917 51.9842 26.8952 51.3105 28.0316C50.637 29.1264 49.6902 30.0023 48.5751 30.562C47.299 31.2029 45.8982 31.5162 44.4864 31.4767Z" fill="#9DA9B3"/>
<path d="M60.4771 6.46313V31.4765H55.5565V6.46313H60.4771Z" fill="#9DA9B3"/>
<path d="M69.4442 31.4765C68.4066 31.4962 67.377 31.2814 66.424 30.8464C65.5677 30.4554 64.839 29.8063 64.3285 28.9799C63.7926 28.0495 63.5268 26.9728 63.5638 25.8838C63.5361 24.9733 63.7231 24.0699 64.1077 23.2551C64.4573 22.5684 64.9645 21.9859 65.5826 21.5613C66.237 21.1135 66.957 20.7838 67.7133 20.5857C68.5363 20.3597 69.3751 20.2045 70.2216 20.1216C71.2518 20.0064 72.0825 19.8935 72.7139 19.7829C73.1964 19.7331 73.6639 19.5774 74.0864 19.3255C74.2252 19.2275 74.3374 19.0928 74.412 18.9348C74.4866 18.7768 74.5211 18.6009 74.5119 18.4245V18.3499C74.5305 18.0157 74.4788 17.6812 74.3604 17.3707C74.242 17.0602 74.0599 16.7814 73.8272 16.5546C73.2733 16.0998 72.5817 15.8745 71.8821 15.9211C71.1348 15.8799 70.3951 16.0963 69.7737 16.5376C69.2705 16.9114 68.9017 17.4547 68.7275 18.0789L64.1813 17.686C64.3918 16.5929 64.8607 15.5743 65.5442 14.7253C66.2569 13.8656 67.1576 13.2038 68.1676 12.7978C69.3603 12.323 70.6274 12.0931 71.9012 12.1203C72.8558 12.1163 73.807 12.2392 74.7326 12.4862C75.5936 12.7097 76.4096 13.0953 77.1417 13.6244C77.8408 14.1241 78.415 14.796 78.815 15.5824C79.2425 16.4718 79.4526 17.4607 79.426 18.4583V31.1276H74.7646V28.5226H74.6271C74.3418 29.1101 73.953 29.6345 73.4817 30.0673C72.9773 30.5274 72.394 30.8805 71.7637 31.1073C71.0159 31.3686 70.2315 31.4935 69.4442 31.4765ZM70.8551 27.8892C71.521 27.9049 72.1803 27.7467 72.7747 27.4285C73.3049 27.1451 73.7552 26.7186 74.08 26.192C74.3969 25.6627 74.5614 25.0471 74.5535 24.4204V22.5234L73.9328 22.7232C73.6391 22.8158 73.3412 22.8927 73.0402 22.9536C72.7203 23.0247 72.3779 23.0857 72.0484 23.1365L71.1462 23.2788C70.6217 23.3513 70.1085 23.4971 69.6201 23.7124C69.2264 23.8772 68.8801 24.1481 68.6156 24.4983C68.37 24.8544 68.2439 25.2872 68.2572 25.7279C68.2415 26.0407 68.3003 26.3527 68.4284 26.6351C68.5564 26.9174 68.7495 27.1612 68.9899 27.3438C69.5417 27.7292 70.1946 27.9201 70.8551 27.8892Z" fill="#9DA9B3"/>
<path d="M83.244 31.4768V12.7168H88.0078V15.9925H88.1934C88.4432 14.9443 89.0149 14.0137 89.8186 13.3469C90.5784 12.7502 91.5025 12.4347 92.4484 12.4492C92.7147 12.4505 92.9806 12.4674 93.2451 12.5C93.4984 12.526 93.7497 12.5713 93.9969 12.6355V17.2493C93.6817 17.1608 93.361 17.0962 93.0371 17.0562C92.6661 17.0009 92.292 16.9715 91.9174 16.9681C91.2483 16.9582 90.5878 17.1284 89.9978 17.4627C89.4421 17.7837 88.9797 18.2593 88.6604 18.838C88.326 19.456 88.1558 20.1584 88.1678 20.8705V31.4768H83.244Z" fill="#9DA9B3"/>
<path d="M96.5175 31.477V12.717H101.432V31.477H96.5175Z" fill="#9DA9B3"/>
<path d="M114.801 11.856V15.7517H104.115V11.856H114.801ZM106.54 7.95703H111.454V25.4467C111.436 25.8318 111.507 26.2158 111.662 26.5646C111.787 26.8166 111.992 27.0136 112.241 27.1201C112.519 27.2326 112.814 27.2867 113.112 27.2794C113.344 27.2799 113.577 27.2584 113.806 27.215L114.337 27.11L115.121 30.9819C114.874 31.0632 114.529 31.158 114.081 31.2698C113.546 31.3901 113.002 31.457 112.456 31.4697C111.397 31.5386 110.337 31.3677 109.346 30.9683C108.497 30.6172 107.773 29.9929 107.276 29.1831C106.757 28.2644 106.504 27.2041 106.55 26.1344L106.54 7.95703Z" fill="#9DA9B3"/>
<path d="M99.0061 10.9484C102.042 10.9484 104.502 8.49753 104.502 5.47421C104.502 2.45089 102.042 0 99.0061 0C95.9705 0 93.5096 2.45089 93.5096 5.47421C93.5096 8.49753 95.9705 10.9484 99.0061 10.9484Z" fill="#9DA9B3"/>
<path fill-rule="evenodd" clip-rule="evenodd" d="M0.904175 21.419C0.907952 23.2286 1.24833 25.0198 1.90588 26.6902C2.56343 28.3606 3.52526 29.8775 4.73647 31.1543C5.94768 32.431 7.38455 33.4427 8.96503 34.1316C10.5455 34.8204 12.2386 35.1729 13.9478 35.1689H26.9914V7.6691H13.9478C12.2386 7.66509 10.5455 8.01757 8.96503 8.70639C7.38455 9.39522 5.94768 10.4069 4.73647 11.6837C3.52526 12.9605 2.56343 14.4774 1.90588 16.1478C1.24833 17.8182 0.907952 19.6093 0.904175 21.419H0.904175ZM14.8788 7.6691C14.8788 15.2639 20.3176 21.419 26.9914 21.419C20.3016 21.419 14.8788 27.5741 14.8788 35.1689C14.8788 27.5741 9.45594 21.419 2.76617 21.419C9.45594 21.419 14.8788 15.2639 14.8788 7.6691Z" fill="#9DA9B3"/>
</g>
<defs>
<clipPath id="clip0_21_353">
<rect width="114.199" height="35.1691" fill="white" transform="translate(0.904175)"/>
</clipPath>
</defs>
</svg>
