<svg width="24" height="24" viewBox="0 0 24 24" fill="none" xmlns="http://www.w3.org/2000/svg">
<g id="Iconsax/Bulk/closecircle">
<path id="Vector" opacity="0.6" d="M12 22C17.523 22 22 17.523 22 12C22 6.477 17.523 2 12 2C6.477 2 2 6.477 2 12C2 17.523 6.477 22 12 22Z" fill="#D2D2D7"/>
<path id="Vector_2" d="M13.0594 12.0001L15.3594 9.70006C15.6494 9.41006 15.6494 8.93007 15.3594 8.64007C15.2182 8.50058 15.0278 8.42236 14.8294 8.42236C14.6309 8.42236 14.4405 8.50058 14.2994 8.64007L11.9994 10.9401L9.69937 8.64007C9.55824 8.50058 9.36781 8.42236 9.16937 8.42236C8.97094 8.42236 8.78051 8.50058 8.63937 8.64007C8.34938 8.93007 8.34938 9.41006 8.63937 9.70006L10.9394 12.0001L8.63937 14.3001C8.34938 14.5901 8.34938 15.0701 8.63937 15.3601C8.78937 15.5101 8.97937 15.5801 9.16937 15.5801C9.35937 15.5801 9.54937 15.5101 9.69937 15.3601L11.9994 13.0601L14.2994 15.3601C14.4494 15.5101 14.6394 15.5801 14.8294 15.5801C15.0194 15.5801 15.2094 15.5101 15.3594 15.3601C15.6494 15.0701 15.6494 14.5901 15.3594 14.3001L13.0594 12.0001Z" fill="#8E8E9A"/>
</g>
</svg>
