<svg width="25" height="24" viewBox="0 0 25 24" fill="none" xmlns="http://www.w3.org/2000/svg">
<g id="Iconsax/Bold/edit2">
<path id="Vector" d="M21.5 22.0001H3.5C3.09 22.0001 2.75 21.6601 2.75 21.2501C2.75 20.8401 3.09 20.5001 3.5 20.5001H21.5C21.91 20.5001 22.25 20.8401 22.25 21.2501C22.25 21.6601 21.91 22.0001 21.5 22.0001ZM19.52 3.48211C17.58 1.54211 15.68 1.49211 13.69 3.48211L12.48 4.69211C12.38 4.79211 12.34 4.95211 12.38 5.09211C12.7625 6.40449 13.4697 7.59923 14.4363 8.56583C15.4029 9.53242 16.5976 10.2397 17.91 10.6221C17.9809 10.6453 18.0568 10.6483 18.1293 10.6306C18.2017 10.6129 18.2678 10.5753 18.32 10.5221L19.52 9.31211C20.51 8.33211 20.99 7.38211 20.99 6.42211C21 5.43211 20.52 4.47211 19.52 3.48211ZM16.11 11.5301C15.82 11.3901 15.54 11.2501 15.27 11.0901C15.0507 10.9595 14.8371 10.8193 14.63 10.6701C14.46 10.5601 14.26 10.4001 14.07 10.2401C14.0088 10.1955 13.9519 10.1453 13.9 10.0901C13.57 9.81011 13.2 9.45011 12.87 9.05011C12.84 9.03011 12.79 8.96011 12.72 8.87011C12.62 8.75011 12.45 8.55011 12.3 8.32011C12.1575 8.13203 12.0272 7.93495 11.91 7.73011C11.75 7.46011 11.61 7.19011 11.47 6.91011C11.4492 6.86533 11.4288 6.82033 11.409 6.77511C11.261 6.44211 10.826 6.34511 10.569 6.60211L4.84 12.3311C4.71 12.4611 4.59 12.7111 4.56 12.8811L4.02 16.7111C3.92 17.3911 4.11 18.0311 4.53 18.4611C4.89 18.8111 5.39 19.0011 5.93 19.0011C6.05 19.0011 6.17 18.9911 6.29 18.9711L10.13 18.4311C10.31 18.4011 10.56 18.2811 10.68 18.1511L16.402 12.4301C16.662 12.1701 16.563 11.7251 16.226 11.5801C16.1873 11.5635 16.1486 11.5469 16.11 11.5301Z" fill="url(#paint0_linear_529_5837)"/>
</g>
<defs>
<linearGradient id="paint0_linear_529_5837" x1="2.75" y1="2.0083" x2="12.3132" y2="25.9665" gradientUnits="userSpaceOnUse">
<stop stop-color="#27AE60"/>
<stop offset="1" stop-color="#11998E"/>
</linearGradient>
</defs>
</svg>
