<svg width="20" height="20" viewBox="0 0 20 20" fill="none" xmlns="http://www.w3.org/2000/svg">
<g id="Iconsax/Linear/emptywallet">
<path id="Vector" d="M15.033 11.2913C14.683 11.633 14.483 12.1247 14.533 12.6497C14.608 13.5497 15.433 14.208 16.333 14.208H17.9163V15.1997C17.9163 16.9247 16.508 18.333 14.783 18.333H5.21634C3.49134 18.333 2.08301 16.9247 2.08301 15.1997V9.59134C2.08301 7.86634 3.49134 6.45801 5.21634 6.45801H14.783C16.508 6.45801 17.9163 7.86634 17.9163 9.59134V10.7913H16.233C15.7663 10.7913 15.3413 10.9747 15.033 11.2913Z" stroke="#8E8E9A" stroke-width="1.5" stroke-linecap="round" stroke-linejoin="round"/>
<path id="Vector_2" d="M2.08301 10.3421V6.53374C2.08301 5.54208 2.69134 4.65874 3.61634 4.30874L10.233 1.80874C10.4727 1.7184 10.7308 1.68758 10.9851 1.71893C11.2394 1.75028 11.4822 1.84287 11.6929 1.98874C11.9035 2.13462 12.0755 2.32942 12.1943 2.55643C12.3131 2.78344 12.375 3.03588 12.3747 3.29208V6.45874M5.83301 10.0004H11.6663M18.7988 11.6421V13.3587C18.7988 13.8171 18.4322 14.1921 17.9655 14.2087H16.3322C15.4322 14.2087 14.6072 13.5504 14.5322 12.6504C14.4822 12.1254 14.6822 11.6337 15.0322 11.2921C15.3405 10.9754 15.7655 10.7921 16.2322 10.7921H17.9655C18.4322 10.8087 18.7988 11.1837 18.7988 11.6421Z" stroke="#8E8E9A" stroke-width="1.5" stroke-linecap="round" stroke-linejoin="round"/>
</g>
</svg>
