<svg width="32" height="32" viewBox="0 0 32 32" fill="none" xmlns="http://www.w3.org/2000/svg">
<path d="M19.96 30.3334H11.96C4.72004 30.3334 1.62671 27.2401 1.62671 20.0001V12.0001C1.62671 4.76008 4.72004 1.66675 11.96 1.66675H19.96C27.2 1.66675 30.2934 4.76008 30.2934 12.0001V20.0001C30.2934 27.2401 27.2134 30.3334 19.96 30.3334ZM11.96 3.66675C5.81337 3.66675 3.62671 5.85341 3.62671 12.0001V20.0001C3.62671 26.1467 5.81337 28.3334 11.96 28.3334H19.96C26.1067 28.3334 28.2934 26.1467 28.2934 20.0001V12.0001C28.2934 5.85341 26.1067 3.66675 19.96 3.66675H11.96Z" fill="#1D1D35"/>
<path d="M15.2667 24.08C14.9467 24.08 14.1733 23.96 13.72 22.8L12.2 18.96C11.9867 18.4133 11.2267 17.9067 10.6533 17.9067L2.65332 17.9333C2.10665 17.9333 1.65332 17.4933 1.65332 16.9333C1.65332 16.3867 2.09332 15.9333 2.65332 15.9333L10.6533 15.9067H10.6667C12.0667 15.9067 13.56 16.92 14.08 18.2267L15.2933 21.2933L18.04 14.3333C18.4533 13.2933 19.1867 13.1467 19.4933 13.12C19.8 13.1067 20.5467 13.1733 21.0667 14.16L22.4533 16.7867C22.6933 17.24 23.4133 17.68 23.9333 17.68H29.3467C29.8933 17.68 30.3467 18.1333 30.3467 18.68C30.3467 19.2267 29.8933 19.68 29.3467 19.68H23.9333C22.6667 19.68 21.28 18.84 20.6933 17.72L19.6533 15.7467L16.8533 22.8C16.36 23.9467 15.5733 24.08 15.2667 24.08Z" fill="#1D1D35"/>
</svg>
