<svg width="161" height="48" viewBox="0 0 161 48" fill="none" xmlns="http://www.w3.org/2000/svg">
<path d="M66.3036 18.7677C64.9195 18.7677 63.6694 19.0514 62.5086 19.6186C61.7496 19.9968 61.0352 20.5168 60.4101 21.1787V9.7384H56.6151V38.0082H60.4101V28.4589C60.4101 26.5679 60.8566 25.1024 61.7496 24.0624C62.6425 23.0224 63.848 22.5023 65.4553 22.5023C67.9556 22.5023 69.161 24.1097 69.161 27.5134V38.0082H72.9561V26.6624C72.9561 24.0624 72.3757 22.0769 71.1702 20.7532C70.0094 19.4768 68.3574 18.7677 66.3036 18.7677Z" fill="#9DA9B3"/>
<path d="M89.0294 19.9965C87.7346 19.1928 86.2613 18.7673 84.6539 18.7673C83.4485 18.7673 82.3323 19.0037 81.2607 19.4764C80.1892 19.9492 79.2962 20.611 78.5372 21.4619C77.7782 22.3129 77.1532 23.3529 76.7067 24.5347C76.2602 25.7166 76.037 27.0403 76.037 28.4585C76.037 29.8767 76.2602 31.2004 76.7067 32.3822C77.1532 33.6113 77.7782 34.6514 78.5819 35.5023C79.3855 36.3532 80.3231 37.0151 81.4393 37.4878C82.5109 37.9605 83.7164 38.1969 84.9665 38.1969C86.5291 38.1969 87.9132 37.866 89.1633 37.2514C90.3688 36.6369 91.4404 35.7387 92.244 34.6514L92.5119 34.2732L89.833 31.8149L89.5205 32.1931C88.9847 32.855 88.3597 33.4222 87.6007 33.8477C86.8417 34.2259 86.038 34.4623 85.1004 34.4623C83.6717 34.4623 82.5555 33.9895 81.5733 33.0913C80.725 32.2877 80.1892 31.2004 79.966 29.924H92.8691L92.9137 29.4985C92.9584 29.1203 93.003 28.6476 93.003 28.1748C93.003 26.3784 92.6458 24.7711 91.9761 23.3529C91.3064 21.982 90.3242 20.8001 89.0294 19.9965ZM80.0553 26.473C80.3231 25.3384 80.8589 24.4402 81.6179 23.7311C82.5109 22.9274 83.5378 22.502 84.7879 22.502C85.9934 22.502 86.9756 22.8802 87.7793 23.6838C88.449 24.3929 88.9401 25.2911 89.1633 26.4257H80.0553V26.473Z" fill="#9DA9B3"/>
<path d="M100.459 9.73804H96.6639V38.0078H100.459V9.73804Z" fill="#9DA9B3"/>
<path d="M107.289 11.4396C106.575 11.4396 105.994 11.6759 105.503 12.196C105.012 12.716 104.789 13.3306 104.789 14.0397C104.789 14.7488 105.012 15.3634 105.503 15.8834C105.994 16.4034 106.575 16.6398 107.289 16.6398C107.959 16.6398 108.539 16.4034 109.03 15.8834C109.522 15.3634 109.745 14.7488 109.745 14.0397C109.745 13.3306 109.522 12.6687 109.03 12.196C108.539 11.6759 107.959 11.4396 107.289 11.4396Z" fill="#9DA9B3"/>
<path d="M109.166 19.004H105.371V38.0081H109.166V19.004Z" fill="#9DA9B3"/>
<path d="M125.505 28.2224C125.505 29.2152 125.371 30.1134 125.104 30.917C124.836 31.7207 124.523 32.3825 124.077 32.9025C123.675 33.4225 123.184 33.8007 122.603 34.0844C122.067 34.368 121.487 34.5098 120.862 34.5098C119.612 34.5098 118.674 34.1316 118.094 33.3753C117.469 32.6189 117.156 31.2479 117.156 29.357V18.9568H113.361V30.2079C113.361 32.8552 113.986 34.8407 115.192 36.2117C116.397 37.5826 118.094 38.2444 120.237 38.2444C121.398 38.2444 122.559 37.9608 123.585 37.3462C124.255 36.9681 124.88 36.448 125.416 35.8808V38.0081H129.211V19.0041H125.416V28.2224H125.505Z" fill="#9DA9B3"/>
<path d="M159.124 20.8475C158.053 19.4765 156.401 18.8147 154.303 18.8147C152.963 18.8147 151.668 19.1456 150.552 19.8075C149.615 20.3275 148.811 21.0366 148.186 21.9348C147.159 19.902 145.284 18.862 142.694 18.862C141.489 18.862 140.373 19.1929 139.301 19.7602C138.587 20.1384 137.962 20.6584 137.426 21.2729V19.0511H133.631V38.0552H137.426V28.6004C137.426 26.7567 137.872 25.244 138.721 24.1567C139.569 23.0694 140.596 22.5493 141.891 22.5493C143.096 22.5493 143.944 22.9275 144.525 23.7312C145.15 24.5821 145.418 25.9058 145.418 27.7495V38.008H149.213V28.5532C149.213 26.7095 149.615 25.1967 150.463 24.1094C151.267 23.0221 152.293 22.5021 153.499 22.5021C154.704 22.5021 155.553 22.8803 156.133 23.6839C156.714 24.4876 156.981 25.8585 156.981 27.7495V38.008H160.776V26.9458C160.732 24.2512 160.196 22.1712 159.124 20.8475Z" fill="#9DA9B3"/>
<path d="M18.9784 9.64386L28.0865 0H37.1053V19.1932H27.8186V9.59659L18.9784 9.64386Z" fill="#81909D"/>
<path d="M37.1049 19.193L46.213 28.7896V38.3861H28.1307V28.5059H37.1495L37.1049 19.193Z" fill="#81909D"/>
<path d="M28.1326 38.3397L19.0245 47.9835H10.0057V28.8376H19.2924V38.3869L28.1326 38.3397Z" fill="#81909D"/>
<path d="M10.0045 28.8378L0.896362 19.2412V9.64465H18.9786V19.5249H9.95981L10.0045 28.8378Z" fill="#81909D"/>
</svg>
