<svg width="20" height="20" viewBox="0 0 20 20" fill="none" xmlns="http://www.w3.org/2000/svg">
<g id="Instagram" clip-path="url(#clip0_529_8637)">
<path id="Vector" d="M14.1663 19.1663H5.83301C4.50693 19.1663 3.23516 18.6396 2.29747 17.7019C1.35979 16.7642 0.833008 15.4924 0.833008 14.1663V5.83301C0.833008 4.50693 1.35979 3.23516 2.29747 2.29747C3.23516 1.35979 4.50693 0.833008 5.83301 0.833008H14.1663C15.4924 0.833008 16.7642 1.35979 17.7019 2.29747C18.6396 3.23516 19.1663 4.50693 19.1663 5.83301V14.1663C19.1663 15.4924 18.6396 16.7642 17.7019 17.7019C16.7642 18.6396 15.4924 19.1663 14.1663 19.1663ZM5.83301 2.49967C4.94895 2.49967 4.10111 2.85086 3.47599 3.47599C2.85086 4.10111 2.49967 4.94895 2.49967 5.83301V14.1663C2.49967 15.0504 2.85086 15.8982 3.47599 16.5234C4.10111 17.1485 4.94895 17.4997 5.83301 17.4997H14.1663C15.0504 17.4997 15.8982 17.1485 16.5234 16.5234C17.1485 15.8982 17.4997 15.0504 17.4997 14.1663V5.83301C17.4997 4.94895 17.1485 4.10111 16.5234 3.47599C15.8982 2.85086 15.0504 2.49967 14.1663 2.49967H5.83301Z" fill="#303C42"/>
<path id="&#60;Group&#62;" d="M10 15C9.0111 15 8.0444 14.7068 7.22215 14.1574C6.39991 13.6079 5.75904 12.8271 5.3806 11.9134C5.00217 10.9998 4.90315 9.99446 5.09608 9.02455C5.289 8.05465 5.76521 7.16373 6.46447 6.46447C7.16373 5.76521 8.05465 5.289 9.02455 5.09608C9.99446 4.90315 10.9998 5.00217 11.9134 5.3806C12.8271 5.75904 13.6079 6.39991 14.1574 7.22215C14.7068 8.0444 15 9.0111 15 10C15 11.3261 14.4732 12.5979 13.5355 13.5355C12.5979 14.4732 11.3261 15 10 15ZM10 6.66667C9.34073 6.66667 8.69627 6.86217 8.1481 7.22844C7.59994 7.59471 7.1727 8.1153 6.9204 8.72439C6.66811 9.33348 6.6021 10.0037 6.73072 10.6503C6.85934 11.2969 7.1768 11.8909 7.64298 12.357C8.10915 12.8232 8.7031 13.1407 9.3497 13.2693C9.9963 13.3979 10.6665 13.3319 11.2756 13.0796C11.8847 12.8273 12.4053 12.4001 12.7716 11.8519C13.1378 11.3037 13.3333 10.6593 13.3333 10C13.3333 9.11595 12.9821 8.2681 12.357 7.64298C11.7319 7.01786 10.8841 6.66667 10 6.66667Z" fill="#303C42"/>
<path id="&#60;Group&#62;_2" d="M15.0003 4.99967C15.4606 4.99967 15.8337 4.62658 15.8337 4.16634C15.8337 3.7061 15.4606 3.33301 15.0003 3.33301C14.5401 3.33301 14.167 3.7061 14.167 4.16634C14.167 4.62658 14.5401 4.99967 15.0003 4.99967Z" fill="#303C42"/>
</g>
<defs>
<clipPath id="clip0_529_8637">
<rect width="20" height="20" fill="white"/>
</clipPath>
</defs>
</svg>
