<svg width="20" height="20" viewBox="0 0 20 20" fill="none" xmlns="http://www.w3.org/2000/svg">
<g id="linkedin">
<path id="Vector" d="M11.0704 8.83391H11.0844V8.81191L11.0704 8.83391ZM11.0704 8.83391H11.0844V8.81191L11.0704 8.83391ZM11.0704 8.83391H11.0844V8.81191L11.0704 8.83391ZM11.0704 8.83391H11.0844V8.81191L11.0704 8.83391ZM11.0704 8.83391H11.0844V8.81191L11.0704 8.83391ZM11.0704 8.83391H11.0844V8.81191L11.0704 8.83391ZM11.0704 8.83391H11.0844V8.81191L11.0704 8.83391ZM11.0704 8.83391H11.0844V8.81191L11.0704 8.83391ZM11.0704 8.83391H11.0844V8.81191L11.0704 8.83391ZM11.0704 8.83391H11.0844V8.81191L11.0704 8.83391ZM11.0704 8.83391H11.0844V8.81191L11.0704 8.83391ZM11.0704 8.83391H11.0844V8.81191L11.0704 8.83391ZM11.0704 8.83391H11.0844V8.81191L11.0704 8.83391ZM11.0704 8.83391H11.0844V8.81191L11.0704 8.83391ZM11.0704 8.83391H11.0844V8.81191L11.0704 8.83391ZM11.0704 8.83391H11.0844V8.81191L11.0704 8.83391ZM10.1604 0.753906C8.35384 0.753906 6.58787 1.28961 5.08579 2.29326C3.58371 3.29692 2.41299 4.72346 1.72166 6.39248C1.03032 8.0615 0.849441 9.89804 1.20188 11.6699C1.55432 13.4417 2.42425 15.0692 3.70166 16.3466C4.97907 17.624 6.60659 18.494 8.37842 18.8464C10.1502 19.1988 11.9868 19.018 13.6558 18.3266C15.3248 17.6353 16.7514 16.4646 17.755 14.9625C18.7587 13.4604 19.2944 11.6944 19.2944 9.88791C19.2917 7.46623 18.3285 5.1445 16.6162 3.43212C14.9038 1.71973 12.582 0.756553 10.1604 0.753906ZM7.87637 13.9999C7.87585 14.0404 7.85939 14.0791 7.83056 14.1075C7.80174 14.136 7.76287 14.1519 7.72237 14.1519H5.96237C5.92206 14.1519 5.8834 14.1359 5.85489 14.1074C5.82639 14.0789 5.81037 14.0402 5.81037 13.9999V8.08591C5.81011 8.06578 5.81384 8.0458 5.82136 8.02712C5.82888 8.00845 5.84004 7.99146 5.85418 7.97713C5.86832 7.9628 5.88516 7.95143 5.90374 7.94366C5.92231 7.9359 5.94224 7.9319 5.96237 7.93191H7.72237C7.7426 7.93191 7.76262 7.93589 7.7813 7.94363C7.79999 7.95137 7.81697 7.96271 7.83127 7.97701C7.84557 7.99131 7.85691 8.00829 7.86465 8.02697C7.87239 8.04566 7.87637 8.06568 7.87637 8.08591V13.9999ZM6.78037 7.14191C6.56163 7.14191 6.34779 7.07704 6.16591 6.95551C5.98403 6.83398 5.84227 6.66125 5.75856 6.45915C5.67485 6.25706 5.65295 6.03468 5.69562 5.82014C5.7383 5.60559 5.84363 5.40852 5.99831 5.25385C6.15299 5.09917 6.35006 4.99383 6.5646 4.95116C6.77914 4.90848 7.00152 4.93038 7.20362 5.0141C7.40571 5.09781 7.57845 5.23956 7.69998 5.42145C7.82151 5.60333 7.88637 5.81716 7.88637 6.03591C7.88664 6.18122 7.85821 6.32516 7.80272 6.45947C7.74723 6.59377 7.66577 6.7158 7.56302 6.81855C7.46027 6.92131 7.33824 7.00277 7.20393 7.05825C7.06963 7.11374 6.92569 7.14217 6.78037 7.14191ZM15.3244 13.9999C15.3238 14.0404 15.3074 14.0791 15.2786 14.1075C15.2497 14.136 15.2109 14.1519 15.1704 14.1519H13.4104C13.3904 14.1519 13.3706 14.148 13.3522 14.1403C13.3338 14.1327 13.317 14.1215 13.3029 14.1074C13.2888 14.0933 13.2776 14.0765 13.2699 14.0581C13.2623 14.0396 13.2584 14.0199 13.2584 13.9999V10.8219C13.2584 9.98591 12.9604 9.42191 12.2124 9.42191C11.9793 9.42321 11.7523 9.49656 11.5625 9.6319C11.3728 9.76724 11.2295 9.95796 11.1524 10.1779C11.0996 10.3405 11.0766 10.5112 11.0844 10.6819V13.9999C11.0844 14.0408 11.0681 14.0799 11.0393 14.1088C11.0104 14.1377 10.9712 14.1539 10.9304 14.1539H9.17037C9.15024 14.1539 9.13031 14.1499 9.11174 14.1421C9.09316 14.1344 9.07632 14.123 9.06218 14.1087C9.04804 14.0944 9.03688 14.0774 9.02936 14.0587C9.02184 14.04 9.01811 14.02 9.01837 13.9999C9.01837 13.1559 9.04037 9.05791 9.01837 8.09391C9.01811 8.07378 9.02184 8.0538 9.02936 8.03512C9.03688 8.01645 9.04804 7.99946 9.06218 7.98513C9.07632 7.9708 9.09316 7.95943 9.11174 7.95166C9.13031 7.9439 9.15024 7.9399 9.17037 7.93991H10.9264C10.9467 7.93964 10.9668 7.94344 10.9856 7.95108C11.0044 7.95872 11.0215 7.97006 11.0359 7.98441C11.0502 7.99877 11.0616 8.01585 11.0692 8.03466C11.0768 8.05346 11.0806 8.07361 11.0804 8.09391V8.81991C11.2674 8.49515 11.5399 8.22784 11.8681 8.04697C12.1964 7.8661 12.5679 7.77858 12.9424 7.79391C14.3004 7.79391 15.3204 8.68191 15.3204 10.5939L15.3244 13.9999ZM11.0844 8.83991V8.81791L11.0704 8.83991H11.0844ZM11.0704 8.83991H11.0844V8.81791L11.0704 8.83991ZM11.0704 8.83991H11.0844V8.81791L11.0704 8.83991ZM11.0704 8.83991H11.0844V8.81791L11.0704 8.83991ZM11.0704 8.83991H11.0844V8.81791L11.0704 8.83991ZM11.0704 8.83991H11.0844V8.81791L11.0704 8.83991ZM11.0704 8.83991H11.0844V8.81791L11.0704 8.83991ZM11.0704 8.83991H11.0844V8.81791L11.0704 8.83991ZM11.0704 8.83991H11.0844V8.81791L11.0704 8.83991ZM11.0704 8.83991H11.0844V8.81791L11.0704 8.83991ZM11.0704 8.83991H11.0844V8.81791L11.0704 8.83991ZM11.0704 8.83991H11.0844V8.81791L11.0704 8.83991ZM11.0704 8.83991H11.0844V8.81791L11.0704 8.83991ZM11.0704 8.83991H11.0844V8.81791L11.0704 8.83991ZM11.0704 8.83991H11.0844V8.81791L11.0704 8.83991Z" fill="black"/>
</g>
</svg>
