<svg width="30" height="36" viewBox="0 0 30 36" fill="none" xmlns="http://www.w3.org/2000/svg">
<path d="M0 0H29.3333V23.5067C29.3333 30.1341 23.9607 35.5067 17.3333 35.5067H12C5.37259 35.5067 0 30.1341 0 23.5067V0Z" fill="url(#paint0_linear_643_6801)"/>
<path d="M18.8533 15.02V14.1867C18.8533 12.3867 18.42 10 14.6667 10C10.9133 10 10.48 12.3867 10.48 14.1867V15.02C8.61333 15.2533 8 16.2 8 18.5267V19.7667C8 22.5 8.83333 23.3333 11.5667 23.3333H17.7667C20.5 23.3333 21.3333 22.5 21.3333 19.7667V18.5267C21.3333 16.2 20.72 15.2533 18.8533 15.02ZM14.6667 21.16C13.5533 21.16 12.6533 20.2533 12.6533 19.1467C12.6533 18.0333 13.56 17.1333 14.6667 17.1333C15.2001 17.1351 15.7112 17.3478 16.0884 17.725C16.4656 18.1022 16.6782 18.6132 16.68 19.1467C16.68 20.26 15.78 21.16 14.6667 21.16ZM11.5667 14.96H11.4133V14.1867C11.4133 12.2333 11.9667 10.9333 14.6667 10.9333C17.3667 10.9333 17.92 12.2333 17.92 14.1867V14.9667H11.5667V14.96Z" fill="white"/>
<path d="M14.6667 25.5063C14.9549 25.5063 15.2313 25.3919 15.4351 25.1881C15.6389 24.9843 15.7534 24.7079 15.7534 24.4197C15.7534 24.1315 15.6389 23.8551 15.4351 23.6513C15.2313 23.4475 14.9549 23.333 14.6667 23.333C14.3785 23.333 14.1021 23.4475 13.8984 23.6513C13.6946 23.8551 13.5801 24.1315 13.5801 24.4197C13.5801 24.7079 13.6946 24.9843 13.8984 25.1881C14.1021 25.3919 14.3785 25.5063 14.6667 25.5063Z" fill="#EE6A5F"/>
<defs>
<linearGradient id="paint0_linear_643_6801" x1="0" y1="0" x2="19.0235" y2="40.3655" gradientUnits="userSpaceOnUse">
<stop stop-color="#27AE60"/>
<stop offset="1" stop-color="#11998E"/>
</linearGradient>
</defs>
</svg>
