<svg width="154" height="25" viewBox="0 0 154 25" fill="none" xmlns="http://www.w3.org/2000/svg">
<path d="M8 24.884C5.90933 24.884 4.16 24.2973 2.752 23.124C1.344 21.9293 0.64 20.1693 0.64 17.844H5.664C5.664 18.5907 5.87733 19.1667 6.304 19.572C6.752 19.956 7.31733 20.148 8 20.148C8.66133 20.148 9.216 19.956 9.664 19.572C10.112 19.188 10.336 18.6547 10.336 17.972V1.78H15.424V18.292C15.424 20.468 14.72 22.1107 13.312 23.22C11.904 24.3293 10.1333 24.884 8 24.884ZM30.8083 24.884C27.3309 24.884 24.4616 23.7533 22.2003 21.492C19.9389 19.2307 18.8083 16.4467 18.8083 13.14C18.8083 9.83333 19.9389 7.04933 22.2003 4.788C24.4616 2.52666 27.3096 1.396 30.7443 1.396C33.1123 1.396 35.2883 2.036 37.2723 3.316C39.2563 4.596 40.6429 6.324 41.4323 8.5H35.5763C34.4456 7.04933 32.8349 6.324 30.7443 6.324C28.6963 6.324 27.0429 6.97467 25.7843 8.276C24.5469 9.57733 23.9283 11.1987 23.9283 13.14C23.9283 15.0813 24.5576 16.7027 25.8163 18.004C27.0749 19.3053 28.7389 19.956 30.8083 19.956C34.1576 19.956 36.1203 18.4733 36.6963 15.508H30.1683V10.74H41.9763C42.2536 13.0653 42.1469 15.156 41.6563 17.012C41.1869 18.8467 40.4189 20.3293 39.3523 21.46C38.3069 22.5693 37.0589 23.4227 35.6083 24.02C34.1576 24.596 32.5576 24.884 30.8083 24.884ZM45.7125 24.5V1.78H59.6965V6.644H50.8005V10.74H57.7445V15.604H50.8005V24.5H45.7125ZM67.215 24.852C65.2737 24.852 63.7803 24.2013 62.735 22.9C61.6897 21.5987 61.167 19.8387 61.167 17.62V8.5H65.999V16.788C65.999 19.2413 66.8203 20.468 68.463 20.468C70.4683 20.468 71.471 19.0707 71.471 16.276V8.5H76.303V24.5H71.471V22.868C70.5537 24.1907 69.135 24.852 67.215 24.852ZM80.2653 24.5V8.5H85.0973V10.132C86.0146 8.80933 87.4973 8.148 89.5453 8.148C91.4866 8.148 93.0013 8.79867 94.0893 10.1C95.1986 11.4013 95.7533 13.1187 95.7533 15.252V24.5H90.9213V16.084C90.9213 13.716 90.0573 12.532 88.3293 12.532C87.3693 12.532 86.5906 12.884 85.9933 13.588C85.3959 14.292 85.0973 15.3373 85.0973 16.724V24.5H80.2653ZM105.979 24.852C103.91 24.852 102.15 24.0307 100.699 22.388C99.2699 20.7453 98.5553 18.7827 98.5553 16.5C98.5553 14.2173 99.2699 12.2547 100.699 10.612C102.15 8.96933 103.91 8.148 105.979 8.148C107.814 8.148 109.265 8.79867 110.331 10.1V0.499998H115.163V24.5H110.331V22.9C109.265 24.2013 107.814 24.852 105.979 24.852ZM104.411 19.348C105.094 20.0947 105.979 20.468 107.067 20.468C108.155 20.468 109.03 20.0947 109.691 19.348C110.374 18.6013 110.715 17.652 110.715 16.5C110.715 15.348 110.374 14.3987 109.691 13.652C109.03 12.9053 108.155 12.532 107.067 12.532C105.979 12.532 105.094 12.9053 104.411 13.652C103.75 14.3987 103.419 15.348 103.419 16.5C103.419 17.652 103.75 18.6013 104.411 19.348ZM126.66 24.852C124.186 24.852 122.148 24.0627 120.548 22.484C118.97 20.9053 118.18 18.9 118.18 16.468C118.18 14.0787 118.98 12.0947 120.58 10.516C122.202 8.93733 124.228 8.148 126.66 8.148C127.834 8.148 128.932 8.35067 129.956 8.756C131.002 9.16133 131.919 9.748 132.708 10.516C133.519 11.284 134.148 12.276 134.596 13.492C135.044 14.708 135.247 16.084 135.204 17.62H122.884C122.97 18.4947 123.354 19.2307 124.036 19.828C124.719 20.404 125.679 20.692 126.916 20.692C127.62 20.692 128.26 20.5533 128.836 20.276C129.412 19.9773 129.796 19.6147 129.988 19.188H135.044C134.532 20.8733 133.508 22.2387 131.972 23.284C130.436 24.3293 128.666 24.852 126.66 24.852ZM126.532 11.988C125.615 11.988 124.847 12.2227 124.228 12.692C123.631 13.1613 123.226 13.78 123.012 14.548H129.86C129.626 13.6733 129.188 13.0333 128.548 12.628C127.93 12.2013 127.258 11.988 126.532 11.988ZM144.667 24.852C142.597 24.852 140.837 24.0307 139.387 22.388C137.957 20.7453 137.243 18.7827 137.243 16.5C137.243 14.2173 137.957 12.2547 139.387 10.612C140.837 8.96933 142.597 8.148 144.667 8.148C146.501 8.148 147.952 8.79867 149.019 10.1V0.499998H153.851V24.5H149.019V22.9C147.952 24.2013 146.501 24.852 144.667 24.852ZM143.099 19.348C143.781 20.0947 144.667 20.468 145.755 20.468C146.843 20.468 147.717 20.0947 148.379 19.348C149.061 18.6013 149.403 17.652 149.403 16.5C149.403 15.348 149.061 14.3987 148.379 13.652C147.717 12.9053 146.843 12.532 145.755 12.532C144.667 12.532 143.781 12.9053 143.099 13.652C142.437 14.3987 142.107 15.348 142.107 16.5C142.107 17.652 142.437 18.6013 143.099 19.348Z" fill="#27AE60"/>
</svg>
