<svg width="138" height="27" viewBox="0 0 138 27" fill="none" xmlns="http://www.w3.org/2000/svg">
<path d="M0.911987 0.329189H6.31811V2.50578C8.1602 0.645784 10.3627 -0.0269857 12.8055 0.0521631C15.2482 0.131312 17.3706 1.04152 18.7722 3.02024C19.6532 2.38705 20.4141 1.63514 21.3351 1.16025C23.8179 -0.185282 26.8213 -0.383153 29.4243 0.685356C31.9872 1.67472 33.2286 3.77216 33.6691 6.3445C33.7892 7.09641 33.8293 7.8879 33.8293 8.63982C33.8293 12.0828 33.8293 15.5258 33.8293 18.9687V19.5228H28.1428V19.0083C28.1428 15.7236 28.1829 12.4785 28.1028 9.19386C28.0628 8.36279 27.9426 7.57131 27.6223 6.81939C27.2218 5.71131 26.1806 4.95939 24.9793 4.91982C22.136 4.68237 20.2539 6.3445 20.2139 9.35215C20.1338 12.5577 20.2139 15.7236 20.1738 18.9292V19.5228H14.5274V19.0083C14.5274 15.8028 14.5274 12.6368 14.5274 9.4313C14.5675 8.48152 14.3672 7.53173 14.0068 6.6611C13.5663 5.71131 12.6453 5.03854 11.6041 4.95939C8.96111 4.60322 7.03893 6.10705 6.71857 8.71896C6.67852 9.23343 6.63848 9.7479 6.63848 10.2624C6.63848 13.1909 6.63848 16.0798 6.63848 19.0083V19.5228C6.59843 19.5624 6.55838 19.6019 6.51834 19.6019H0.911987V0.329189Z" fill="#9DA9B3"/>
<path d="M137.869 0.806128C137.869 0.647831 137.829 0.529109 137.829 0.331238C137.669 0.291664 137.589 0.291661 137.468 0.291661C135.947 0.291661 134.425 0.331236 132.903 0.291661C132.543 0.291661 132.463 0.410383 132.463 0.766551V2.62654C132.022 2.19122 131.542 1.79548 131.021 1.43931C128.979 0.0542135 126.696 -0.183231 124.334 0.172938C119.688 0.885274 116.605 4.28866 116.324 8.56268C116.124 11.4912 116.925 14.0635 119.128 16.1214C120.85 17.7043 123.092 18.6145 125.455 18.6541C127.898 18.7728 130.14 18.2584 131.982 16.5171C132.022 16.4775 132.102 16.438 132.142 16.438C132.142 16.9128 132.182 17.3482 132.142 17.8231C131.982 20.3162 130.661 21.7805 128.178 22.1762C126.256 22.4928 124.253 22.2949 122.411 21.5826C121.45 21.2264 120.529 20.712 119.528 20.2371L117.286 24.2737C118.167 24.7486 118.967 25.2234 119.888 25.5796C123.252 26.8856 126.937 27.2021 130.461 26.5294C132.663 26.1336 134.545 25.1443 135.947 23.3635C137.388 21.4639 137.909 19.2477 137.909 16.9524C137.909 11.5703 137.869 6.18823 137.869 0.806128ZM127.657 14.0239C126.096 14.1426 124.654 13.8261 123.493 12.718C122.091 11.3724 121.771 9.71034 122.291 7.92949C122.812 6.14865 124.133 5.19887 125.935 4.80312C126.296 4.72398 126.696 4.68441 127.057 4.68441C129.099 4.76355 130.741 5.39674 131.702 7.13801C133.063 9.63119 132.022 13.6678 127.657 14.0239Z" fill="#9DA9B3"/>
<path d="M57.5762 19.6021V0.32942H52.1701C51.9298 0.32942 51.8898 0.448138 51.8898 0.646009V2.14983C51.2891 1.71451 50.6884 1.2792 50.0477 0.923033C48.4059 0.0919744 46.5638 -0.185045 44.7617 0.131549C41.7583 0.527291 39.3556 1.91239 37.7938 4.52429C36.3923 6.81959 36.1119 9.31277 36.5124 11.9247C36.7927 13.9825 37.7938 15.9217 39.3156 17.3463C41.438 19.3251 44.0009 20.0374 46.8441 19.8791C48.8063 19.8395 50.6484 19.048 52.0099 17.6629C52.09 17.6234 52.1301 17.5838 52.2102 17.5442V19.6021H57.5762ZM50.0477 14.3387C47.645 16.1195 43.1199 15.4864 42.2789 11.3311C41.9185 9.55021 42.1187 7.84852 43.3201 6.38427C44.6416 4.8013 46.3635 4.36599 48.3658 4.84088C50.3681 5.31577 51.4893 6.70087 51.8898 8.64001C51.9699 9.03575 52.0099 9.39192 52.0099 9.78766C52.0099 11.6872 51.4893 13.2306 50.0477 14.3387Z" fill="#9DA9B3"/>
<path d="M93.1747 0.330248H98.5808V2.46726C98.6609 2.42768 98.741 2.34853 98.8211 2.30896C100.863 0.409397 103.346 -0.105071 106.029 0.0928004C107.631 0.171949 109.153 0.765561 110.394 1.75492C111.796 2.94214 112.677 4.64384 112.917 6.46426C113.037 7.25574 113.077 8.04722 113.077 8.87828C113.077 12.2817 113.077 15.6455 113.077 19.0489V19.6029H107.431V19.0884C107.431 15.8829 107.431 12.6774 107.431 9.4719C107.431 8.75956 107.311 8.04722 107.11 7.37446C106.83 6.14766 105.749 5.19788 104.467 5.03958C102.705 4.76256 101.104 5.03958 99.9023 6.50383C99.2215 7.41403 98.8211 8.48254 98.8611 9.6302C98.8211 12.7566 98.8611 15.9225 98.8611 19.0489V19.6029H93.1346V0.330248H93.1747Z" fill="#9DA9B3"/>
<path d="M60.3378 19.5231L67.7862 9.86701L60.578 0.329641C60.7783 0.329641 60.8984 0.290065 61.0185 0.290065C62.8606 0.290065 64.7027 0.290065 66.5048 0.290065C66.7851 0.290065 67.0253 0.408785 67.1855 0.64623C68.4269 2.38749 69.7084 4.12876 71.0299 5.87002C71.11 5.7513 71.2301 5.67215 71.3102 5.55343C72.5516 3.93089 73.793 2.26877 75.0344 0.606659C75.1946 0.369214 75.4349 0.250488 75.7152 0.250488C77.4371 0.250488 79.1591 0.250488 80.9211 0.250488C81.0412 0.250488 81.1614 0.250488 81.4016 0.250488L74.1534 9.66914C76.6362 12.9142 79.119 16.1989 81.6819 19.5231C81.4417 19.5231 81.2815 19.5627 81.1614 19.5627C79.3193 19.5627 77.4772 19.5627 75.6751 19.5627C75.3948 19.5627 75.1145 19.444 74.9543 19.2065C73.753 17.5048 72.5116 15.8031 71.2702 14.1014C71.1901 13.9827 71.11 13.864 70.9898 13.7057C70.1889 14.7742 69.4281 15.8031 68.6272 16.8321C68.0265 17.6631 67.4258 18.4546 66.7851 19.2461C66.6649 19.4044 66.5048 19.4835 66.3446 19.5231C64.4224 19.5231 62.5002 19.5231 60.578 19.5231C60.4579 19.5627 60.4179 19.5627 60.3378 19.5231Z" fill="#9DA9B3"/>
<path d="M86.4077 19.9189C84.4855 19.9189 82.9237 18.3755 82.9237 16.476C82.9237 16.3968 82.9237 16.3177 82.9237 16.2385C82.9237 14.3786 84.4454 12.8748 86.3276 12.8748C86.4077 12.8748 86.4477 12.8748 86.5278 12.8748C88.6502 12.9539 90.0518 14.4181 89.9717 16.5551C89.9317 18.4547 88.3298 19.9585 86.4077 19.9189Z" fill="#9DA9B3"/>
</svg>
