<svg width="20" height="20" viewBox="0 0 20 20" fill="none" xmlns="http://www.w3.org/2000/svg">
<g id="Iconsax/Linear/moneyrecive" clip-path="url(#clip0_529_8596)">
<path id="Vector" d="M7.91699 11.4583C7.91699 12.2667 8.54199 12.9167 9.30866 12.9167H10.8753C11.542 12.9167 12.0837 12.35 12.0837 11.6417C12.0837 10.8833 11.7503 10.6083 11.2587 10.4333L8.75033 9.55833C8.25866 9.38333 7.92533 9.11667 7.92533 8.35C7.92533 7.65 8.46699 7.075 9.13366 7.075H10.7003C11.467 7.075 12.092 7.725 12.092 8.53333M10.0003 6.25V13.75" stroke="#8E8E9A" stroke-width="1.5" stroke-linecap="round" stroke-linejoin="round"/>
<path id="Vector_2" d="M18.3337 10.0003C18.3337 14.6003 14.6003 18.3337 10.0003 18.3337C5.40033 18.3337 1.66699 14.6003 1.66699 10.0003C1.66699 5.40033 5.40033 1.66699 10.0003 1.66699" stroke="#8E8E9A" stroke-width="1.5" stroke-linecap="round" stroke-linejoin="round"/>
<path id="Vector_3" d="M14.167 2.50033V5.83366M14.167 5.83366H17.5003M14.167 5.83366L18.3337 1.66699" stroke="#8E8E9A" stroke-width="1.5" stroke-linecap="round" stroke-linejoin="round"/>
</g>
<defs>
<clipPath id="clip0_529_8596">
<rect width="20" height="20" fill="white"/>
</clipPath>
</defs>
</svg>
