<svg width="64" height="67" viewBox="0 0 64 67" fill="none" xmlns="http://www.w3.org/2000/svg">
<path d="M32.0997 66.2165C49.6828 66.2165 63.9124 51.4377 63.9124 33.1082C63.9124 14.7788 49.5921 0 32.0997 0C14.6072 0 0.286987 14.7788 0.286987 33.1082C0.286987 51.4377 14.5166 66.2165 32.0997 66.2165Z" fill="#D7DCE0"/>
<path d="M26.7522 21.2083H16.9637C16.6012 21.2083 16.2386 21.4002 15.9667 21.6881C15.6948 21.976 15.5135 22.3598 15.5135 22.7437V33.108C15.5135 34.6435 15.7855 36.1789 16.3293 37.7144C16.8731 39.1539 17.6888 40.4974 18.7764 41.553C19.864 42.7046 21.0422 43.5683 22.4018 44.1441C23.7613 44.7199 25.2114 45.0078 26.7522 45.0078V21.2083Z" fill="#9DA9B3"/>
<path d="M38.0811 21.2083H26.7518C29.7427 21.2083 32.643 22.4558 34.7276 24.663C36.8122 26.8702 37.9904 29.9412 38.0811 33.108C38.0811 34.6435 38.353 36.1789 38.8968 37.7144C39.4406 39.1539 40.2563 40.4974 41.3439 41.553C42.4315 42.6087 43.6098 43.5683 44.9693 44.1441C46.3288 44.7199 47.779 45.0078 49.3198 45.0078V33.108C49.3198 29.9412 48.1415 26.8702 45.9663 24.663C43.9723 22.4558 41.072 21.2083 38.0811 21.2083Z" fill="#9DA9B3"/>
<path d="M38.0811 33.108C38.0811 29.9412 36.9029 26.8702 34.7276 24.663C32.643 22.4558 29.7427 21.2083 26.7518 21.2083V33.108C26.7518 34.6435 27.0237 36.1789 27.5675 37.7144C28.1113 39.1539 28.927 40.4974 30.0146 41.553C31.1022 42.7046 32.2805 43.5683 33.64 44.1441C34.9995 44.7199 36.4497 45.0078 37.9905 45.0078V33.108H38.0811Z" fill="#81909D"/>
</svg>
