<svg width="24" height="27" viewBox="0 0 24 27" fill="none" xmlns="http://www.w3.org/2000/svg">
<path id="Vector" d="M12.3588 3.53067C5.98549 3.53067 0.798828 8.71733 0.798828 15.0907C0.798828 21.464 5.98549 26.664 12.3588 26.664C18.7322 26.664 23.9188 21.4773 23.9188 15.104C23.9188 8.73067 18.7322 3.53067 12.3588 3.53067ZM13.3588 14.664C13.3588 15.2107 12.9055 15.664 12.3588 15.664C11.8122 15.664 11.3588 15.2107 11.3588 14.664V7.99733C11.3588 7.45067 11.8122 6.99733 12.3588 6.99733C12.9055 6.99733 13.3588 7.45067 13.3588 7.99733V14.664ZM16.2122 1.93333H8.50549C7.97216 1.93333 7.5455 1.50667 7.5455 0.973333C7.5455 0.44 7.97216 0 8.50549 0H16.2122C16.7455 0 17.1722 0.426667 17.1722 0.96C17.1722 1.49333 16.7455 1.93333 16.2122 1.93333Z" fill="#686878"/>
</svg>
