<svg width="109" height="35" viewBox="0 0 109 35" fill="none" xmlns="http://www.w3.org/2000/svg">
<g clip-path="url(#clip0_21_342)">
<path d="M22.4886 22.8178C22.6287 22.6382 22.7588 22.45 22.8781 22.2542C22.19 21.1683 21.502 20.1374 20.6192 19.1752C20.3466 19.4502 20.0999 19.6701 19.8793 19.9175C18.9316 20.9209 17.9969 21.9381 17.0492 22.9415C16.9064 23.0927 16.6987 23.1889 16.465 23.3539C16.1665 23.0652 15.8809 22.8178 15.6212 22.5429C13.5212 20.4111 11.577 18.1136 9.80536 15.6702C8.28649 13.5671 6.88445 11.3816 5.781 8.98987C5.28911 7.96939 4.91639 6.8893 4.67105 5.77344C4.59307 5.42671 4.55386 5.07147 4.55421 4.71504C4.54123 4.16523 4.80087 3.9453 5.3461 4.01402C6.11961 4.1344 6.87204 4.37526 7.57898 4.72879C8.89949 5.3749 10.1636 6.14304 11.3567 7.02428C11.5904 7.18922 11.85 7.32668 12.0837 7.46413C13.3689 6.44697 14.4204 5.40231 14.7969 4.75628C14.64 4.59496 14.4706 4.44783 14.2906 4.31642C13.0313 3.46421 11.7851 2.59824 10.5129 1.80101C9.50968 1.19328 8.44207 0.713434 7.33232 0.371484C6.44107 0.0753707 5.50592 -0.0443799 4.57369 0.0182258C2.59396 0.137811 1.05561 1.66768 0.847904 3.74324C0.737372 4.80556 0.803275 5.88017 1.04263 6.91844C1.35013 8.17919 1.77634 9.40409 2.31485 10.5747C3.24305 12.609 4.36598 14.5197 5.57978 16.3574C5.81345 16.7148 6.03414 17.0584 6.2808 17.4433C6.04712 17.8282 5.8524 18.1443 5.64469 18.4742C4.89174 19.6976 4.11283 20.9072 3.41181 22.158C2.48829 23.7837 1.74762 25.5183 1.2049 27.3263C0.855508 28.498 0.723265 29.7302 0.81545 30.9551C1.01018 33.3056 2.568 34.8588 4.7749 34.9413C6.11203 34.9962 7.35829 34.6114 8.5656 34.1028C10.2792 33.388 11.837 32.3984 13.3559 31.3125C16.7247 28.8836 19.73 25.9971 22.4886 22.8178ZM13.2066 26.4328C11.4541 27.9036 9.61063 29.2369 7.54652 30.1991C6.87309 30.539 6.15551 30.7707 5.4175 30.8864C4.67754 30.9826 4.45685 30.7901 4.53474 29.9792C4.57882 29.3925 4.69669 28.8146 4.88525 28.261C5.23612 27.2201 5.65247 26.2052 6.13151 25.2232C6.74165 24.0136 7.46863 22.859 8.15667 21.6769C8.32403 21.4268 8.50614 21.188 8.70191 20.9622C8.85769 21.0309 8.9875 21.0446 9.05241 21.1134C10.4934 22.7078 11.9257 24.3115 13.3494 25.9243C13.3883 25.9655 13.3754 26.0755 13.3883 26.1717C13.3492 26.2745 13.2868 26.3656 13.2066 26.437V26.4328Z" fill="#9DA9B3"/>
<path d="M28.6301 20.4166C28.1238 19.5919 27.5916 18.7809 27.0593 17.97C26.8386 17.6263 26.8126 17.3377 27.0463 17.0078C27.1891 16.8291 27.306 16.6229 27.4358 16.4305C28.5003 14.8085 29.5129 13.1591 30.3567 11.3996C30.9958 10.108 31.5175 8.7548 31.9145 7.35848C32.203 6.3386 32.3255 5.27417 32.2767 4.21078C32.1209 1.48918 30.2515 0.0734013 28.2393 0.0321649C27.0982 0.00467407 26.0324 0.279583 24.9679 0.6782C23.1245 1.37922 21.4628 2.41013 19.8531 3.551C16.4389 5.98394 13.4141 8.91172 10.61 12.0869C10.4672 12.2519 10.3374 12.458 10.2206 12.623C10.636 13.5989 11.6356 15.0009 12.4794 15.7707C12.7131 15.537 12.9468 15.3033 13.1804 15.0559C14.1281 14.0525 15.0628 13.0353 16.0105 12.0319C16.1533 11.8807 16.374 11.7845 16.5817 11.6471C16.8673 11.9082 17.1269 12.1144 17.3606 12.3618C18.1265 13.1728 18.9054 13.97 19.6324 14.8085C22.1249 17.6538 24.3967 20.6641 26.2531 24.018C27.045 25.4475 27.772 26.9182 28.2004 28.5265C28.347 29.053 28.4555 29.5906 28.5249 30.1347C28.5899 30.7395 28.2913 31.0144 27.7201 30.9457C26.9472 30.83 26.1947 30.5938 25.4872 30.2446C24.2335 29.6334 23.0306 28.9115 21.8912 28.0866C21.5927 27.8804 21.333 27.5643 20.8657 27.5368C20.2036 28.1553 19.5026 28.8014 18.8016 29.4611C18.6068 29.6398 18.4251 29.8323 18.1914 30.0659C18.2483 30.1679 18.3135 30.2645 18.3861 30.3546C20.4503 32.0041 22.6182 33.4473 25.0588 34.382C26.0343 34.7733 27.0665 34.9826 28.1095 35.0006C30.6799 34.9731 32.2377 33.0075 32.2767 30.5883C32.3156 28.8563 31.8613 27.2344 31.2511 25.6674C30.5552 23.824 29.6766 22.0639 28.6301 20.4166ZM24.5538 13.746C24.4432 13.8524 24.3212 13.9447 24.1903 14.0209L19.5688 8.8801C19.699 8.69077 19.8469 8.51579 20.0102 8.35778C21.594 7.05196 23.2556 5.85611 25.0731 4.93516C25.9169 4.50905 26.7737 4.15167 27.7084 4.02796C28.3315 3.94549 28.6301 4.20665 28.5522 4.89393C28.4977 5.40223 28.3977 5.9039 28.2536 6.39218C27.4617 9.10415 26.0922 11.4821 24.5538 13.746Z" fill="#9DA9B3"/>
<path d="M56.5735 26.3608C54.4263 28.6223 51.816 29.7527 48.7428 29.7518C45.6696 29.7508 43.0646 28.6205 40.9278 26.3608C38.7935 24.101 37.7264 21.3322 37.7264 18.0544C37.7264 14.7766 38.7935 12.0078 40.9278 9.74802C43.0663 7.48827 45.6713 6.3584 48.7428 6.3584C51.8143 6.3584 54.4245 7.48827 56.5735 9.74802C58.7181 12.0078 59.7903 14.7766 59.7903 18.0544C59.7903 21.3322 58.7181 24.101 56.5735 26.3608ZM43.8513 23.3368C45.1659 24.7186 46.7947 25.4096 48.7376 25.4096C50.6806 25.4096 52.3094 24.7186 53.624 23.3368C54.9386 21.9549 55.5964 20.1927 55.5972 18.0503C55.5981 15.9078 54.9403 14.1406 53.624 12.7487C52.3094 11.3567 50.6806 10.6603 48.7376 10.6593C46.7947 10.6584 45.1659 11.3549 43.8513 12.7487C42.5401 14.1461 41.8845 15.9147 41.8845 18.0544C41.8845 20.1941 42.5418 21.9563 43.8565 23.3409L43.8513 23.3368Z" fill="#9DA9B3"/>
<path d="M66.4634 15.9987C66.7852 15.024 67.4257 14.2034 68.2691 13.6853C69.1242 13.1693 70.0943 12.9054 71.0784 12.9211V17.5478C69.9581 17.3803 68.8187 17.6547 67.8771 18.3189C66.9346 18.9787 66.4634 20.0797 66.4634 21.6219V29.3015H62.5507V13.2345H66.4634V15.9987Z" fill="#9DA9B3"/>
<path d="M82.1869 12.7832C84.2319 12.7832 85.9771 13.6029 87.4225 15.2423C88.8678 16.8817 89.5913 18.8899 89.593 21.2669C89.593 23.6495 88.8695 25.6577 87.4225 27.2916C85.9754 28.9254 84.2302 29.7451 82.1869 29.7506C80.0631 29.7506 78.4243 28.9685 77.2707 27.4043V29.2998H73.3553V6.80811H77.2707V15.131C78.4252 13.5658 80.0639 12.7832 82.1869 12.7832ZM78.4546 24.5287C79.2439 25.3754 80.2452 25.7983 81.4586 25.7974C82.672 25.7965 83.6789 25.3736 84.4795 24.5287C85.2774 23.682 85.6768 22.5947 85.6777 21.2669C85.6786 19.9391 85.2792 18.8523 84.4795 18.0065C83.6798 17.1607 82.6728 16.7378 81.4586 16.7378C80.2444 16.7378 79.243 17.1607 78.4546 18.0065C77.6653 18.8532 77.2707 19.9405 77.2707 21.2683C77.2707 22.5961 77.6653 23.6834 78.4546 24.5301V24.5287Z" fill="#9DA9B3"/>
<path d="M94.2961 11.3073C93.6635 11.296 93.0598 11.0249 92.6124 10.5512C92.1651 10.0775 91.909 9.43834 91.8983 8.76854C91.8967 8.43316 91.9591 8.10088 92.0818 7.79168C92.2045 7.48248 92.3849 7.20273 92.6123 6.96926C92.8276 6.72368 93.0889 6.52827 93.3795 6.39551C93.67 6.26274 93.9835 6.19553 94.3 6.19814C94.62 6.19444 94.9373 6.26105 95.2318 6.39378C95.5263 6.5265 95.7916 6.72246 96.011 6.96926C96.238 7.20299 96.4181 7.48282 96.5405 7.79198C96.663 8.10114 96.7253 8.43329 96.7237 8.76854C96.7267 9.10218 96.665 9.43293 96.5425 9.74031C96.4199 10.0477 96.239 10.3251 96.011 10.5554C95.7888 10.7982 95.522 10.9901 95.2271 11.1194C94.9321 11.2487 94.6153 11.3127 94.2961 11.3073ZM92.3488 29.3015V13.2344H96.2641V29.3015H92.3488Z" fill="#9DA9B3"/>
<path d="M108.527 17.2192H105.103V23.9036C105.103 24.4598 105.233 24.8667 105.492 25.1242C105.752 25.3817 106.136 25.5264 106.645 25.5585C107.272 25.5901 107.9 25.5846 108.526 25.542V29.3014C105.834 29.623 103.938 29.3555 102.836 28.4987C101.734 27.6419 101.185 26.1102 101.187 23.9036V17.2192H98.5469V13.233H101.187V9.98906L105.103 8.73547V13.2344H108.527V17.2192Z" fill="#9DA9B3"/>
</g>
<defs>
<clipPath id="clip0_21_342">
<rect width="107.753" height="35" fill="white" transform="translate(0.777222)"/>
</clipPath>
</defs>
</svg>
