<svg width="16" height="16" viewBox="0 0 16 16" fill="none" xmlns="http://www.w3.org/2000/svg">
<g id="Pdf" clip-path="url(#clip0_529_7429)">
<g id="Group">
<g id="Group_2">
<path id="Vector" d="M14 14.5V1.5C14 0.65 13.35 0 12.5 0H1.5C2.35 0 3 0.65 3 1.5V14.5C3 15.35 3.65 16 4.5 16H15.5C14.65 16 14 15.35 14 14.5Z" fill="#F42727"/>
<path id="Vector_2" d="M1.5 0C0.65 0 0 0.65 0 1.5V3H3V1.5C3 0.65 2.35 0 1.5 0ZM3.45 15.55C3.7 15.85 4.1 16 4.5 16H6V13L3.45 15.55Z" fill="#E20C0C"/>
<path id="Vector_3" d="M6 13V14.5C6 15.35 5.35 16 4.5 16H14.5C15.35 16 16 15.35 16 14.5V13H6Z" fill="#BF0202"/>
<path id="Vector_4" d="M6.20078 7.3999C6.15078 7.3999 6.10078 7.3999 6.10078 7.3999C6.05078 7.3999 6.00078 7.3999 6.00078 7.3999V8.3499H5.55078V5.8999H6.25078C6.35078 5.8999 6.45078 5.8999 6.55078 5.8999C6.65078 5.8999 6.70078 5.9499 6.80078 5.9499C6.95078 5.9999 7.10078 6.0999 7.20078 6.1999C7.30078 6.2999 7.35078 6.4499 7.35078 6.6499C7.35078 6.7499 7.35078 6.8499 7.30078 6.9499C7.25078 7.0499 7.20078 7.0999 7.10078 7.1999C7.00078 7.2999 6.90078 7.2999 6.75078 7.3499C6.55078 7.3999 6.40078 7.3999 6.20078 7.3999ZM6.00078 6.9999C6.05078 6.9999 6.05078 6.9999 6.10078 6.9999C6.15078 6.9999 6.20078 6.9999 6.20078 6.9999C6.30078 6.9999 6.40078 6.9999 6.50078 6.9499C6.60078 6.8999 6.65078 6.8999 6.70078 6.8499C6.75078 6.7999 6.80078 6.7499 6.80078 6.6999C6.80078 6.6499 6.85078 6.5999 6.85078 6.5499C6.85078 6.4999 6.85078 6.3999 6.80078 6.3499C6.75078 6.2999 6.70078 6.2499 6.65078 6.2499C6.60078 6.2499 6.55078 6.1999 6.50078 6.1999C6.45078 6.1999 6.35078 6.1999 6.25078 6.1999H6.00078V6.9999ZM7.80078 8.3499V5.8999H8.45078C8.50078 5.8999 8.55078 5.8999 8.65078 5.8999C8.70078 5.8999 8.75078 5.8999 8.80078 5.8999C8.85078 5.8999 8.90078 5.8999 8.95078 5.9499C9.00078 5.9999 9.05078 5.9499 9.10078 5.9999C9.25078 6.0499 9.35078 6.0999 9.45078 6.1499C9.55078 6.1999 9.65078 6.2999 9.70078 6.3999C9.75078 6.4999 9.80078 6.5999 9.85078 6.6999C9.90078 6.7999 9.90078 6.9499 9.90078 7.0999C9.90078 7.2499 9.90078 7.3499 9.85078 7.4499C9.80078 7.5499 9.80078 7.6499 9.70078 7.7499C9.65078 7.8499 9.55078 7.9499 9.45078 7.9999C9.35078 8.0499 9.25078 8.1499 9.15078 8.1999C9.05078 8.2499 8.95078 8.2499 8.80078 8.2999C8.65078 8.3499 8.50078 8.3499 8.35078 8.3499H7.80078ZM8.40078 7.9999C8.65078 7.9999 8.85078 7.9499 9.00078 7.8999C9.15078 7.8499 9.25078 7.7499 9.30078 7.5999C9.35078 7.4999 9.40078 7.2999 9.40078 7.1499C9.40078 7.0499 9.40078 6.9499 9.35078 6.8999C9.30078 6.8499 9.30078 6.7499 9.25078 6.6999C9.20078 6.6499 9.15078 6.5999 9.10078 6.5499C9.05078 6.4999 8.95078 6.4499 8.90078 6.4499C8.85078 6.3999 8.75078 6.3999 8.65078 6.3999C8.55078 6.3999 8.45078 6.3999 8.35078 6.3999H8.15078V7.9999H8.40078ZM10.8008 8.3499H10.3508V5.8999H11.9008V6.2999H10.8008V6.9499H11.7508V7.3499H10.8008V8.3499Z" fill="#E6E6E6"/>
</g>
</g>
</g>
<defs>
<clipPath id="clip0_529_7429">
<rect width="16" height="16" fill="white"/>
</clipPath>
</defs>
</svg>
