<svg width="52" height="52" viewBox="0 0 52 52" fill="none" xmlns="http://www.w3.org/2000/svg">
<circle cx="26" cy="26" r="26" fill="#333333"/>
<path d="M25.97 16C20.45 16 15.97 20.48 15.97 26C15.97 31.52 20.45 36 25.97 36C31.49 36 35.97 31.52 35.97 26C35.97 20.48 31.5 16 25.97 16ZM28.97 28.23L26.07 29.9C25.71 30.11 25.31 30.21 24.92 30.21C24.52 30.21 24.13 30.11 23.77 29.9C23.05 29.48 22.62 28.74 22.62 27.9V24.55C22.62 23.72 23.05 22.97 23.77 22.55C24.49 22.13 25.35 22.13 26.08 22.55L28.98 24.22C29.7 24.64 30.13 25.38 30.13 26.22C30.13 27.06 29.7 27.81 28.97 28.23Z" fill="white"/>
</svg>
