<svg width="32" height="32" viewBox="0 0 32 32" fill="none" xmlns="http://www.w3.org/2000/svg">
<path d="M21.2133 16.4934H27.4666C27.36 22.7201 26.1333 23.7468 22.3066 26.0134C21.8666 26.2801 21.72 26.84 21.9866 27.2934C22.2533 27.7334 22.8133 27.8801 23.2666 27.6134C27.7733 24.9468 29.3466 23.3201 29.3466 15.5601V8.37345C29.3466 6.09345 27.4933 4.25342 25.2266 4.25342H21.2266C18.88 4.25342 17.1066 6.02679 17.1066 8.37345V12.3735C17.0933 14.7201 18.8666 16.4934 21.2133 16.4934Z" fill="white"/>
<path opacity="0.4" d="M6.78667 16.4934H13.04C12.9333 22.7201 11.7067 23.7468 7.88001 26.0134C7.44001 26.2801 7.29334 26.84 7.56001 27.2934C7.82667 27.7334 8.38667 27.8801 8.84001 27.6134C13.3467 24.9468 14.92 23.3201 14.92 15.5601V8.37345C14.92 6.09345 13.0667 4.25342 10.8 4.25342H6.80001C4.45334 4.25342 2.68001 6.02679 2.68001 8.37345V12.3735C2.66667 14.7201 4.44001 16.4934 6.78667 16.4934Z" fill="white"/>
</svg>
