<svg width="46" height="46" viewBox="0 0 46 46" fill="none" xmlns="http://www.w3.org/2000/svg">
<g id="Iconsax/Bulk/arrowcircledown2" clip-path="url(#clip0_633_6938)">
<path id="Vector" opacity="0.4" d="M13.5719 32.0558C18.779 37.2629 27.221 37.2629 32.4281 32.0558C37.6352 26.8486 37.6352 18.4067 32.4281 13.1996C27.221 7.99244 18.779 7.99244 13.5719 13.1996C8.36478 18.4067 8.36478 26.8486 13.5719 32.0558Z" fill="#B4B4BC"/>
<path id="Vector_2" d="M26.3572 25.9269C26.3557 25.6623 26.2499 25.409 26.0628 25.2219C25.8757 25.0348 25.6224 24.929 25.3579 24.9275L22.1146 24.9275L27.0078 20.0343C27.3943 19.6478 27.3943 19.0066 27.0078 18.6201C26.6212 18.2335 25.9801 18.2335 25.5936 18.6201L20.7004 23.5133L20.7004 20.27C20.6988 20.0054 20.593 19.7521 20.406 19.5651C20.2189 19.378 19.9656 19.2722 19.701 19.2706C19.1542 19.2706 18.7016 19.7232 18.7016 20.27L18.7016 25.9269C18.7016 26.2097 18.8148 26.4548 18.9939 26.634C19.173 26.8131 19.4182 26.9262 19.701 26.9262L25.3579 26.9262C25.9047 26.9262 26.3572 26.4737 26.3572 25.9269Z" fill="#B4B4BC"/>
</g>
<defs>
<clipPath id="clip0_633_6938">
<rect width="32" height="32" fill="white" transform="translate(23) rotate(45)"/>
</clipPath>
</defs>
</svg>
