<svg width="46" height="46" viewBox="0 0 46 46" fill="none" xmlns="http://www.w3.org/2000/svg">
<g id="Iconsax/Bulk/arrowcircledown2" clip-path="url(#clip0_633_6948)">
<path id="Vector" opacity="0.4" d="M13.2008 32.0558C18.408 37.2629 26.8499 37.2629 32.057 32.0558C37.2641 26.8486 37.2641 18.4067 32.057 13.1996C26.8499 7.99244 18.408 7.99244 13.2008 13.1996C7.99368 18.4067 7.99368 26.8486 13.2008 32.0558Z" fill="#F5A623"/>
<path id="Vector_2" d="M25.9862 25.9269C25.9846 25.6623 25.8788 25.409 25.6917 25.2219C25.5046 25.0348 25.2513 24.929 24.9868 24.9275L21.7435 24.9275L26.6367 20.0343C27.0232 19.6478 27.0232 19.0066 26.6367 18.6201C26.2501 18.2335 25.609 18.2335 25.2225 18.6201L20.3293 23.5133L20.3293 20.27C20.3277 20.0054 20.2219 19.7521 20.0349 19.5651C19.8478 19.378 19.5945 19.2722 19.3299 19.2706C18.7831 19.2706 18.3305 19.7232 18.3305 20.27L18.3305 25.9269C18.3305 26.2097 18.4437 26.4548 18.6228 26.634C18.8019 26.8131 19.0471 26.9262 19.3299 26.9262L24.9868 26.9262C25.5336 26.9262 25.9862 26.4737 25.9862 25.9269Z" fill="#F5A623"/>
</g>
<defs>
<clipPath id="clip0_633_6948">
<rect width="32" height="32" fill="white" transform="translate(22.6289) rotate(45)"/>
</clipPath>
</defs>
</svg>
