<svg width="16" height="16" viewBox="0 0 16 16" fill="none" xmlns="http://www.w3.org/2000/svg">
<g id="Iconsax/Bold/profiletick">
<path id="Vector" d="M7.99997 1.3335C6.25331 1.3335 4.83331 2.7535 4.83331 4.50016C4.83331 6.2135 6.17331 7.60016 7.91997 7.66016C7.97331 7.6535 8.02664 7.6535 8.06664 7.66016H8.11331C8.93288 7.63282 9.70969 7.28781 10.2795 6.6981C10.8493 6.10839 11.1674 5.32019 11.1666 4.50016C11.1666 2.7535 9.74664 1.3335 7.99997 1.3335ZM11.3866 9.44016C9.52664 8.20016 6.49331 8.20016 4.61997 9.44016C3.77331 10.0002 3.30664 10.7668 3.30664 11.5868C3.30664 12.4068 3.77331 13.1668 4.61331 13.7268C5.54664 14.3535 6.77331 14.6668 7.99997 14.6668C9.22664 14.6668 10.4533 14.3535 11.3866 13.7268C12.2266 13.1602 12.6933 12.4002 12.6933 11.5735C12.6866 10.7602 12.2266 9.9935 11.3866 9.44016ZM9.55331 11.0402L7.87331 12.7202C7.83471 12.7585 7.78894 12.7888 7.7386 12.8094C7.68826 12.83 7.63436 12.8404 7.57997 12.8402C7.47331 12.8402 7.36664 12.7935 7.28664 12.7202L6.44664 11.8802C6.36977 11.8019 6.3267 11.6965 6.3267 11.5868C6.3267 11.4771 6.36977 11.3718 6.44664 11.2935C6.60664 11.1335 6.87331 11.1335 7.03331 11.2935L7.57997 11.8402L8.96664 10.4535C9.12664 10.2935 9.39331 10.2935 9.55331 10.4535C9.71997 10.6135 9.71997 10.8802 9.55331 11.0402Z" fill="#434357"/>
</g>
</svg>
